<svg width="132" height="131" viewBox="0 0 132 131" fill="none" xmlns="http://www.w3.org/2000/svg">
<g clip-path="url(#clip0_59_1656)">
<path d="M67.2083 129.305C102.549 128.688 130.698 99.5387 130.081 64.198C129.464 28.8573 100.315 0.708071 64.9744 1.32494C29.6337 1.94182 1.48445 31.0912 2.10132 66.4319C2.7182 101.773 31.8676 129.922 67.2083 129.305Z" fill="#1D6524"/>
<path d="M125.194 64.399C125.764 97.0393 99.7653 123.961 67.1251 124.531C63.2183 124.601 59.3141 124.286 55.4694 123.589C55.1147 123.525 54.7611 123.457 54.4086 123.386C47.4474 121.989 40.797 119.341 34.7799 115.572C34.7494 115.553 34.7185 115.533 34.6876 115.514L34.6778 115.508C33.2701 114.624 31.9047 113.683 30.5815 112.687C29.5934 111.943 28.6296 111.17 27.6902 110.366C15.2795 99.7526 7.29996 84.0741 6.99255 66.4623L6.9917 66.4137C6.99137 66.3948 6.99105 66.3763 6.99072 66.3574C6.98821 66.2137 6.98571 66.0703 6.98321 65.9272C6.98023 65.5896 6.98034 65.2527 6.98354 64.9166C7.04283 56.5281 8.89584 48.2494 12.4182 40.636C21.6379 20.7147 41.6385 6.73857 65.059 6.32977C97.7021 5.76047 124.624 31.7588 125.194 64.399Z" fill="#134217"/>
<path d="M52.8613 124.639C52.8613 124.639 52.8613 124.642 52.8555 124.639C52.8584 124.639 52.8604 124.639 52.8613 124.639Z" fill="#ADFF00"/>
<path d="M100.035 84.0239L93.9243 89.2945L75.921 104.821L74.3765 106.153L55.4688 123.589C46.4361 121.946 37.9131 118.212 30.5814 112.686C30.493 112.61 30.4016 112.538 30.3071 112.47L30.1101 112.311L27.6911 110.366C15.2804 99.7524 7.30082 84.0739 6.99341 66.4621C6.83247 57.2423 8.79162 48.4784 12.4215 40.6363C14.5904 39.1298 19.6831 35.6316 26.2792 31.5127C31.3424 28.3501 37.2923 24.8239 43.4851 21.5522C47.4908 19.4367 51.5974 17.4282 55.632 15.6934C61.243 13.2823 66.7141 11.4025 71.5764 10.5066C75.122 9.85367 78.3435 9.72314 81.061 10.2925C81.4373 10.3711 81.8034 10.4633 82.1595 10.5691C83.5708 10.9878 84.8218 11.6246 85.8843 12.5069L85.8941 12.515C85.9232 12.5388 85.9518 12.5625 85.9809 12.5873L86.0336 12.632C86.0558 12.6506 86.078 12.6701 86.0997 12.6892L86.1081 12.6963C86.148 12.731 86.187 12.7663 86.226 12.8025C86.2571 12.8306 86.2877 12.8592 86.3183 12.8879L86.4171 12.9833L86.472 13.0362C86.4732 13.038 86.4747 13.0397 86.4764 13.041C86.5357 13.0997 86.5955 13.1613 86.6569 13.2248L86.7113 13.2826C86.7197 13.2912 86.7276 13.3003 86.7356 13.3089C87.1494 13.7602 87.7119 14.4851 88.2448 15.6094C89.0344 17.2721 89.7605 19.8081 89.8508 23.6175C89.858 23.9204 89.8611 24.2228 89.8598 24.5245C89.8567 25.3473 89.825 26.1644 89.7647 26.9758C89.0757 36.4135 84.8017 44.9162 82.4291 49.1099C83.2255 48.7439 89.0962 46.4958 95.5547 45.591C95.8658 45.5474 96.1781 45.5071 96.4919 45.4702C100.611 44.9841 104.88 45.0994 108.158 46.6352C108.518 46.8029 108.868 46.9904 109.206 47.1967C125.748 57.2943 108.838 76.008 100.035 84.0239Z" fill="#ADFF00"/>
<path opacity="0.3" d="M89.896 24.6942C89.7244 20.2029 89.0644 17.5088 88.2834 15.7789C87.799 14.7092 87.2671 14.0085 86.7742 13.4785C86.7662 13.4699 86.7583 13.4608 86.7499 13.4522L86.6955 13.3944C86.6341 13.3309 86.5743 13.2693 86.515 13.2106C86.5133 13.2092 86.5118 13.2076 86.5105 13.2058L86.4557 13.1528L86.3569 13.0574C86.3263 13.0288 86.2957 13.0002 86.2646 12.9721C86.2256 12.9359 86.1866 12.9006 86.1467 12.8659L86.1383 12.8587C86.1166 12.8397 86.0944 12.8202 86.0722 12.8016L86.0195 12.7569C85.9904 12.7321 85.9618 12.7093 85.9327 12.6846L85.9229 12.6765C84.8599 11.7942 83.6089 11.1574 82.1981 10.7387L41.3701 119.065C42.1985 119.449 43.0051 119.803 43.7834 120.128C44.4383 120.25 45.0767 120.517 45.692 120.765C50.2375 122.59 53.5372 123.321 54.265 123.39L54.299 123.392L54.3286 123.392C54.3495 123.393 54.3704 123.393 54.3913 123.391L54.3971 123.391L54.4058 123.39L54.4092 123.39L54.4121 123.39C54.5378 123.298 54.6629 123.206 54.7876 123.114C54.8332 123.077 54.8832 123.046 54.9365 123.021C55.162 122.863 55.3859 122.704 55.6081 122.546L57.1291 121.234L89.8009 27.1455L89.9396 26.7487C89.9364 26.0245 89.9218 25.3396 89.896 24.6942ZM26.3135 31.6843L7.17251 68.6991C7.71826 75.6752 9.18847 81.8038 11.2895 87.1793C15.925 77.6582 33.2432 42.1385 43.5203 21.7243C37.3265 24.9955 31.3776 28.5227 26.3135 31.6843ZM55.6673 15.865L17.5978 98.9804C19.8646 102.211 22.4592 105.2 25.3403 107.897L30.1348 111.937L71.6117 10.6782C66.7494 11.5741 61.2782 13.452 55.6673 15.865ZM96.5261 45.6399L75.9562 104.993L93.9576 89.4662L108.192 46.8048C104.914 45.2691 100.646 45.1537 96.5261 45.6399Z" fill="url(#paint0_linear_59_1656)"/>
<path d="M60.7864 69.2257C60.686 69.2624 60.6126 69.288 60.5715 69.3004L60.7864 69.2257Z" fill="#134217"/>
<path d="M79.177 75.3457C74.5614 78.9142 76.2804 77.5919 68.9673 82.2925C66.4344 83.9204 64.2834 85.1993 61.0154 87.0348C55.0282 90.3976 50.9116 91.8934 51.2194 94.8088C51.6767 99.1372 66.6431 99.2164 66.7431 102.664C66.751 102.949 66.6627 103.621 66.2358 104.206C65.0217 105.878 62.2859 105.232 62.2481 105.822C62.2188 106.283 66.6025 106.684 63.8103 109.956C61.2845 112.914 56.7146 113.474 55.3193 113.698C53.6654 113.962 51.1771 114.088 50.495 115.127C50.4666 115.171 55.3955 123.436 55.4681 123.588C55.1134 123.524 54.7598 123.456 54.4073 123.385C47.4465 121.988 40.7965 119.341 34.7796 115.572C34.7491 115.553 34.7182 115.533 34.6873 115.514L34.6775 115.508C33.2698 114.624 31.9044 113.683 30.5812 112.687C29.5931 111.943 28.6293 111.17 27.6899 110.366C15.2792 99.7526 7.29967 84.0741 6.99225 66.4623L6.99141 66.4137C6.99107 66.3948 6.99075 66.3763 6.99042 66.3574C6.98808 66.2234 6.98574 66.0889 6.98679 65.9544C6.98714 65.9453 6.98698 65.9362 6.98631 65.9272C6.98333 65.5895 6.98344 65.2527 6.98664 64.9165C7.15829 64.762 7.36688 64.5811 7.61716 64.3679C7.62495 64.3604 7.63212 64.3524 7.63859 64.3437C8.24762 63.6211 24.1127 54.1716 45.8868 41.4923C54.5682 36.4439 60.1182 34.1616 63.7878 36.8279C65.109 37.7883 66.6204 40.8764 65.1529 44.002C64.4037 45.5983 63.1232 47.0256 59.9055 49.8777C59.2646 50.4455 55.2505 54.0812 55.2505 54.0812C54.9504 54.3351 54.4992 54.7257 53.9634 55.2153C53.4113 55.7228 53.0217 56.106 52.942 56.186C51.3615 57.7337 50.0455 59.133 48.1756 61.355C46.1454 63.7639 44.3153 67.123 45.5432 70.1651C46.5077 72.5542 50.0668 72.8733 54.4149 71.4823C56.7398 70.739 56.9982 70.5708 57.1135 70.5299L62.8683 68.5111L60.7958 69.2233C61.7826 68.8589 65.2621 67.4543 65.5626 67.3359C72.5564 64.5719 80.6818 60.2553 83.192 65.8354C84.5198 68.7884 83.7369 71.8199 79.177 75.3457Z" fill="#134217"/>
<path d="M101.344 103.8C104.709 103.741 107.388 100.966 107.33 97.6012C107.271 94.2366 104.496 91.5566 101.131 91.6153C97.7666 91.6741 95.0867 94.4492 95.1454 97.8138C95.2041 101.178 97.9793 103.858 101.344 103.8Z" fill="#ADFF00"/>
</g>
<defs>
<linearGradient id="paint0_linear_59_1656" x1="41.4912" y1="102.88" x2="76.2666" y2="11.6785" gradientUnits="userSpaceOnUse">
<stop stop-color="#A9FF66"/>
<stop offset="0.87" stop-color="white"/>
</linearGradient>
<clipPath id="clip0_59_1656">
<rect width="128" height="128" fill="white" transform="translate(0.984375 2.44189) rotate(-1)"/>
</clipPath>
</defs>
</svg>
