<svg width="91" height="22" viewBox="0 0 91 22" fill="none" xmlns="http://www.w3.org/2000/svg">
<path d="M14.3729 5.9969L13.3777 6.44561C13.1161 6.5632 12.8198 6.37224 12.8198 6.08532V2.47869C12.8198 0.681957 10.9657 -0.516492 9.32702 0.221015L0 4.42217V16.2891C0 18.0858 1.85412 19.2843 3.49281 18.5467L9.13794 16.004L10.1332 15.5553C10.3947 15.4377 10.691 15.6287 10.691 15.9156V19.5213C10.691 21.318 12.5451 22.5165 14.1838 21.779L23.5099 17.5788V5.71187C23.5099 3.91514 21.6558 2.71669 20.0171 3.45419L14.3729 5.9969ZM21.383 16.2035L12.8198 20.0603V15.0474C12.8198 14.8197 12.7803 14.5996 12.7088 14.3964C12.4407 13.6316 11.7117 13.0832 10.8547 13.0832C10.7992 13.0832 10.7446 13.086 10.691 13.0907C10.5076 13.1048 10.3317 13.1453 10.1671 13.2073L9.92624 13.3155C9.92624 13.3155 9.9206 13.3193 9.91778 13.3202L2.12786 16.8281V5.79747L10.692 1.94061V6.95265C10.692 7.1803 10.7315 7.40042 10.8039 7.60455C11.072 8.36934 11.8001 8.91777 12.6571 8.91777C12.7126 8.91777 12.7671 8.91494 12.8208 8.91024C13.0042 8.89613 13.1811 8.85568 13.3457 8.79359L13.5809 8.68824L21.3839 5.17285V16.2035H21.383Z" fill="#00F65B"/>
<path d="M31.3021 9.72814H40.1662V4.03882H42.6904V17.9611H40.1662V12.2718H31.3021V17.9611H28.7778V4.03882H31.3021V9.72814ZM59.3118 17.9611H56.7875V14.5437H47.9137V17.9611H45.3895V11C45.3895 9.9838 45.5642 9.04853 45.9137 8.19416C46.2633 7.33979 46.7487 6.60516 47.3701 5.99027C47.9914 5.37539 48.726 4.89642 49.5739 4.55338C50.4218 4.21034 51.3474 4.03882 52.3506 4.03882H58.04C58.2147 4.03882 58.3798 4.07118 58.5351 4.13591C58.6904 4.20063 58.8264 4.29125 58.9429 4.40775C59.0594 4.52426 59.15 4.66018 59.2147 4.81552C59.2794 4.97086 59.3118 5.13591 59.3118 5.31066V17.9611ZM47.9137 12.0194H56.7875V6.56309H52.3506C52.273 6.56309 52.1079 6.57603 51.8555 6.60192C51.6095 6.62134 51.3215 6.67636 50.9914 6.76697C50.6678 6.85759 50.3248 6.99675 49.9623 7.18445C49.5998 7.37215 49.2665 7.63105 48.9623 7.96115C48.6581 8.29124 48.4057 8.70548 48.205 9.20387C48.0108 9.69577 47.9137 10.2945 47.9137 11V12.0194ZM76.1273 9.86406C76.1273 10.4401 76.0561 10.9547 75.9137 11.4077C75.7713 11.8608 75.5772 12.2621 75.3312 12.6116C75.0917 12.9547 74.8134 13.2492 74.4963 13.4951C74.1791 13.7411 73.8458 13.9417 73.4963 14.0971C73.1532 14.2524 72.8037 14.3657 72.4477 14.4369C72.0982 14.5081 71.7681 14.5437 71.4574 14.5437H65.7487V12.0194H71.4574C71.7811 11.9935 72.0723 11.9288 72.3312 11.8252C72.5966 11.7152 72.8231 11.5696 73.0108 11.3883C73.1985 11.2071 73.3442 10.9903 73.4477 10.7378C73.5513 10.4789 73.6031 10.1877 73.6031 9.86406V8.71843C73.5707 8.40128 73.5027 8.11001 73.3992 7.84464C73.2956 7.57927 73.1532 7.35273 72.972 7.16503C72.7972 6.97733 72.5836 6.8317 72.3312 6.72814C72.0788 6.61811 71.7875 6.56309 71.4574 6.56309H65.7681C65.4315 6.56309 65.1759 6.65047 65.0011 6.82523C64.8264 6.99998 64.739 7.25241 64.739 7.58251V17.9611H62.2147V7.58251C62.2147 6.93526 62.3312 6.3851 62.5642 5.93202C62.8037 5.47895 63.0982 5.11325 63.4477 4.83493C63.8037 4.55662 64.1888 4.35597 64.6031 4.23299C65.0173 4.10354 65.3992 4.03882 65.7487 4.03882H71.4574C72.027 4.03882 72.5383 4.11325 72.9914 4.26212C73.4445 4.40451 73.8425 4.59869 74.1856 4.84464C74.5351 5.08413 74.8296 5.36244 75.0691 5.67959C75.315 5.99675 75.5157 6.33008 75.671 6.67959C75.8328 7.02264 75.9493 7.37215 76.0205 7.72814C76.0917 8.07765 76.1273 8.40775 76.1273 8.71843V9.86406ZM89.739 12.2718H81.7681V9.72814H89.739V12.2718ZM90.8749 17.9611H81.7681C81.4186 17.9611 81.0367 17.8997 80.6225 17.7767C80.2082 17.6537 79.8231 17.4531 79.4671 17.1747C79.1176 16.8899 78.8231 16.5243 78.5836 16.0776C78.3506 15.6246 78.2341 15.0712 78.2341 14.4175V5.31066C78.2341 5.13591 78.2665 4.97086 78.3312 4.81552C78.3959 4.66018 78.4833 4.52426 78.5934 4.40775C78.7099 4.29125 78.8458 4.20063 79.0011 4.13591C79.1565 4.07118 79.3247 4.03882 79.506 4.03882H90.8749V6.56309H80.7584V14.4175C80.7584 14.7476 80.8458 15 81.0205 15.1747C81.1953 15.3495 81.451 15.4369 81.7875 15.4369H90.8749V17.9611Z" fill="#00F65B"/>
</svg>
