<svg xmlns="http://www.w3.org/2000/svg" width="120" height="120" viewBox="0 0 120 120" fill="none"><path d="M57.295 76.4663C57.0713 76.0875 56.8875 75.6738 56.7325 75.2375C56.5825 74.8188 56.4563 74.3763 56.3588 73.94C56.2788 73.595 56.2213 73.2513 56.17 72.9125C55.4 72.8088 54.6363 72.665 53.8963 72.4763C53.46 72.3675 53.0288 72.24 52.5988 72.0975C52.4263 76.0988 53.7925 80.0188 57.4675 82.4013C57.875 82.6025 58.2938 82.7863 58.725 82.9475C59.4188 83.2113 60.125 83.4175 60.8425 83.5613C61.6813 83.7338 62.525 83.825 63.3637 83.825C64.11 83.825 64.845 83.7513 65.5562 83.6013C66.3263 83.47 67.0487 83.2113 67.7087 82.855C67.7662 82.8263 67.8237 82.7975 67.8875 82.7638C67.95 82.7238 68.0138 82.6825 68.0762 82.6375C70.3325 81.0988 71.2287 78.1025 70.2587 75.2138C69.765 73.9863 68.875 73.1138 67.6175 72.4813C67.1987 72.275 66.745 72.0913 66.2512 71.925C66.1137 71.9025 65.9812 71.885 65.8488 71.8738C65.7175 71.8613 65.5912 71.8563 65.4587 71.8563C65.4012 71.8563 65.3438 71.8563 65.2812 71.8613C65.2288 71.8613 65.1838 71.8563 65.1312 71.8563C62.335 71.8563 60.0675 74.1175 60.0675 76.9138C60.0675 77.3675 60.1313 77.8038 60.24 78.2225C60.1538 78.2288 60.0675 78.2338 59.9875 78.2338C58.7763 78.2513 57.9038 77.51 57.295 76.4663Z" fill="white"></path><path d="M92.2188 55.96C93.2638 55.6325 93.585 54.9838 94.2513 54.3175C96.7763 56.8325 99.0738 59.6288 102.696 59.6288C102.748 59.6288 102.799 59.6288 102.851 59.6225C102.896 59.6225 102.938 59.6288 102.983 59.6288C105.986 59.6288 108.414 57.1938 108.414 54.1975C108.414 51.195 105.985 48.7613 102.983 48.7613C101.078 48.7613 99.395 49.7488 98.43 51.235C95.1925 48.1238 93.5163 44.3113 91.6275 40.5975C91.2138 39.7763 87.355 31.7275 79.6225 25.8725C79.5938 25.85 79.57 25.8325 79.5413 25.81C79.725 26.5275 79.8975 27.25 80.0475 27.985C80.1213 28.3588 80.1963 28.7263 80.265 29.0988C80.2938 29.2475 80.3225 29.3975 80.345 29.5413V29.5638L80.38 29.77V29.7763L80.42 30C80.455 30.2188 80.4888 30.425 80.5175 30.6263C80.57 30.965 80.615 31.2863 80.6563 31.6013C80.6675 31.6138 80.6788 31.625 80.69 31.6363C81.1438 32.05 81.4713 32.3888 81.655 32.5888C83.2563 34.3913 84.56 36.4525 85.645 38.7313C86.8163 41.355 88.2575 43.9388 87.89 47.0675C87.8725 49.0475 87.1888 51.0113 86.1838 52.6588C86.5975 52.86 87.0163 52.94 87.425 52.94C88.3263 52.94 89.1813 52.5675 89.8875 52.3375C89.7788 52.825 89.2725 54.8463 92.2188 55.96Z" fill="white"></path><path d="M25.9937 16.24C30.8112 17.175 30.9825 18.1288 33.2512 22.5488C33.2512 22.5488 33.2512 22.5488 33.2512 22.555C33.2912 22.6288 33.325 22.6975 33.3662 22.7788C33.4512 22.9675 33.5325 23.1688 33.6125 23.375C33.7737 23.8113 33.9687 24.4488 34.1812 25.345V25.35C34.6912 25.0113 35.2087 24.6838 35.7362 24.3625C37.9475 23.0313 40.3187 21.8888 42.815 20.9525C43.0275 20.8725 43.24 20.7975 43.4525 20.7175L43.6362 20.6538C43.86 20.5738 44.125 20.4825 44.395 20.3963C44.4287 20.3838 44.4637 20.3725 44.4925 20.3675L44.5325 20.3563C44.6475 20.315 44.7612 20.2813 44.8762 20.2413C44.8825 20.235 44.8825 20.2238 44.8887 20.2175C45.795 18.1975 47.1325 16.1138 49.1075 14.1675C50.4575 13.0763 52.5412 11.8763 55.1762 11.8763C55.2337 11.8763 55.2912 11.8763 55.3425 11.8763C55.36 11.8763 55.3775 11.8763 55.3887 11.8763C55.44 11.8763 55.4862 11.8825 55.5325 11.8825C55.5612 11.8825 55.5837 11.8825 55.6125 11.8825C55.6637 11.8825 55.7212 11.8875 55.7787 11.8938C55.7962 11.8938 55.8137 11.8938 55.8312 11.8938C57.995 12.06 60.4925 13.0363 63.26 15.4813C63.6562 15.8325 64.115 16.5438 64.5912 17.4388C64.7237 17.6863 64.8562 17.945 64.9825 18.2138C64.9875 18.22 64.9875 18.2263 64.9937 18.2375C65.04 18.3288 65.085 18.4263 65.1312 18.5238C65.2237 18.72 65.315 18.92 65.4075 19.1213V19.1275C65.4237 19.1725 65.4475 19.2188 65.47 19.2588C65.5787 19.5 65.6887 19.7475 65.7912 20C65.7912 20.005 65.7975 20.0113 65.8037 20.0175C65.93 20.315 66.05 20.62 66.1712 20.9188C66.2912 21.2225 66.4062 21.5263 66.5212 21.82C66.6762 22.2275 66.82 22.6288 66.9462 23.0025C66.975 23.0938 67.0025 23.18 67.0375 23.2663C67.0437 23.2888 67.0487 23.3063 67.055 23.3288C67.13 23.6225 67.2037 23.9213 67.2675 24.225C67.325 24.5 67.3825 24.7813 67.4275 25.0625C67.4337 25.08 67.4337 25.0913 67.44 25.1088C67.4737 25.3325 67.5137 25.5625 67.5425 25.7925C67.5537 25.855 67.56 25.9238 67.5662 25.9875V25.9925C67.5887 26.165 67.6112 26.3375 67.6237 26.515C67.635 26.63 67.6462 26.745 67.6575 26.86V26.8663C67.675 27.0213 67.6862 27.1763 67.6925 27.3313C67.95 31.2063 67.17 35.23 64.93 38.3525C67.0087 42.6988 68.725 49.0888 68.7662 53.7663C68.7662 54.1513 68.7487 54.5538 68.72 54.9663C69.3 54.9838 69.885 55.03 70.4762 55.0925C71.7562 55.2363 73.06 55.495 74.3862 55.8675C74.8 55.9825 75.2125 56.1088 75.6325 56.2463L75.8675 56.3275H75.8737L75.9025 56.3388C75.9137 56.345 75.925 56.345 75.9362 56.35C76.0687 55.9888 76.1887 55.6388 76.3037 55.3C78.8187 49.105 79.725 41.8838 79.295 34.9375C79.2437 34.0938 79.1687 33.255 79.0712 32.4225C79.0712 32.3938 79.065 32.365 79.065 32.3363C79.0475 32.1875 79.0312 32.0375 79.0137 31.8888C78.985 31.665 78.95 31.4413 78.9212 31.2175C78.9212 31.2113 78.9162 31.2063 78.9162 31.1938C78.8987 31.085 78.8875 30.97 78.87 30.8613C78.83 30.5863 78.7837 30.31 78.7375 30.04C78.7325 30 78.7262 29.9663 78.7212 29.925C78.715 29.8913 78.7087 29.8563 78.7037 29.8225C78.6462 29.5063 78.5887 29.185 78.5312 28.8688C78.4562 28.485 78.3762 28.1 78.29 27.7213C78.215 27.3825 78.135 27.05 78.055 26.7163C77.9575 26.32 77.8537 25.93 77.745 25.54C77.6362 25.1375 77.5212 24.7363 77.395 24.34C77.395 24.3288 77.3887 24.3225 77.3837 24.3113C77.28 23.9725 77.1712 23.6338 77.0562 23.295C77.0325 23.2375 77.0162 23.18 76.9987 23.1288C76.9987 23.1225 76.9925 23.1113 76.9875 23.105C76.895 22.83 76.7975 22.56 76.7 22.29C76.6537 22.17 76.6075 22.0488 76.5625 21.9288C76.505 21.7738 76.4412 21.625 76.3837 21.47C76.1887 20.9813 75.9875 20.4988 75.775 20.0288C73.0487 14.385 68.3062 9.1675 62.2662 7.07125C62.215 7.04875 61.9512 6.91625 61.5025 6.75C60.5437 6.4 58.73 5.895 56.2612 5.895C53.4312 5.895 49.74 6.56125 45.48 8.89125C43.7225 9.7525 40.8862 11.13 40.255 12.8125C39.6237 14.495 40.33 17.2388 37.78 17.2388C36.5 17.2388 36.0875 16.55 36.0875 15.93C36.0875 15.31 36.0812 14.1613 36.0812 14.1613L29.6562 11.7213L29.3875 11.6188L25.6725 16.1938C25.7875 16.205 25.8912 16.2225 25.9937 16.24Z" fill="white"></path><path d="M98.4825 84.8813C97.495 80.9613 95.8638 75.7363 98.505 72.1375C99.1713 72.8088 100.09 73.2225 101.106 73.2225C103.133 73.2225 104.774 71.58 104.774 69.5538C104.774 68.4513 104.286 67.4588 103.518 66.7875C102.903 66.2075 102.081 65.8575 101.175 65.8575C101.106 65.8575 101.036 65.8575 100.963 65.8575C96.6963 65.8575 93.5613 68.5088 91.575 68.5088C91.1625 68.5088 90.7888 68.3938 90.4788 68.1125C88.3713 66.035 85.995 63.9225 83.4113 62.1088C83.4 62.1025 83.3938 62.0963 83.3825 62.085C81.7575 60.8738 79.4963 59.5425 76.9013 58.4913C76.7575 58.4338 76.62 58.3763 76.4763 58.325C76.355 58.2788 76.2413 58.2388 76.1263 58.1925C76.0288 58.1588 75.9313 58.1188 75.8275 58.0838C75.6663 58.0263 75.5063 57.975 75.345 57.9175C75.2875 57.9 75.23 57.8775 75.1725 57.86C74.9663 57.7913 74.76 57.7275 74.5525 57.665C74.2888 57.585 74.0188 57.51 73.7488 57.435C72.595 57.12 71.4013 56.8838 70.19 56.7525C69.9138 56.7238 69.6388 56.7 69.3625 56.6775C69.0875 56.66 68.8113 56.6488 68.5363 56.6375C68.53 56.6375 68.53 56.6375 68.525 56.6375C68.3813 56.6313 68.2375 56.6313 68.0938 56.6313C68.0075 56.6313 67.9213 56.6313 67.83 56.6375C67.7838 56.6375 67.7263 56.6375 67.6813 56.6375C67.4913 56.6425 67.3013 56.6488 67.1125 56.66C67.015 56.6663 66.9225 56.6713 66.8313 56.6775H66.825C63.7938 56.895 60.7738 57.9288 58.0875 60.225C56.835 61.2925 55.7338 62.705 54.8438 64.3125C55.3888 64.3925 55.9575 64.445 56.5488 64.4738C56.91 64.49 57.2838 64.5025 57.6563 64.5025C57.7025 64.5025 57.7488 64.5025 57.7938 64.5025H57.8688C58.1563 64.4963 58.4425 64.49 58.725 64.4788C59.04 64.4625 59.35 64.4388 59.6488 64.41C60.745 63.555 62.175 62.78 64.0288 62.2063C64.1213 62.1775 64.2125 62.1488 64.31 62.125C64.3675 62.1088 64.4313 62.0913 64.4938 62.0738C64.8038 61.9875 65.12 61.9075 65.4525 61.8325C65.465 61.8275 65.4763 61.8275 65.4938 61.8213C65.51 61.815 65.5225 61.815 65.5388 61.81C65.7063 61.775 65.8725 61.735 66.0388 61.7063C66.1875 61.6775 66.3375 61.6488 66.4813 61.6263C66.5263 61.62 66.5725 61.615 66.6125 61.6088C66.9688 61.5513 67.3188 61.5113 67.6638 61.4825C67.9913 61.4538 68.3125 61.4425 68.6338 61.4363C68.7025 61.4363 68.7775 61.4313 68.84 61.4313C69.7938 61.4313 70.7063 61.5288 71.59 61.6888C71.8775 61.7413 72.1588 61.8038 72.44 61.8725C72.6988 61.9363 72.9513 62.005 73.1975 62.0738C73.2213 62.08 73.2438 62.0913 73.2663 62.0963C73.4675 62.16 73.6688 62.2225 73.87 62.2925C73.9388 62.315 74.0013 62.3438 74.07 62.3663C74.225 62.4238 74.375 62.475 74.5238 62.5325C74.6388 62.5788 74.7475 62.6188 74.8575 62.665C77.0213 63.5488 78.8125 64.76 80.0925 65.7875C84.5363 69.405 87.74 74.6463 87.4013 80.2438C87 86.9313 83.285 93.0163 78.2388 97.2763L75.5513 99.24C75.3913 99.3538 75.225 99.4688 75.0575 99.5838C75.0013 99.6188 74.9488 99.6588 74.8913 99.6925C74.7825 99.7675 74.6675 99.8425 74.5588 99.9163C74.49 99.9625 74.4213 100.003 74.3575 100.049C74.2538 100.118 74.1513 100.181 74.0475 100.244C73.9725 100.29 73.9038 100.336 73.83 100.376C73.7263 100.439 73.6288 100.503 73.525 100.56C73.4563 100.606 73.3813 100.651 73.3013 100.691C73.2038 100.749 73.1 100.813 72.9975 100.87C72.9225 100.916 72.8425 100.956 72.7675 101.001C72.6638 101.059 72.555 101.116 72.4513 101.174C72.3775 101.214 72.3075 101.255 72.2275 101.295C72.1125 101.358 71.9925 101.421 71.8775 101.479C71.8138 101.513 71.745 101.548 71.6825 101.581C71.5038 101.674 71.3263 101.76 71.1538 101.851C71.08 101.891 70.9988 101.926 70.9188 101.966C70.815 102.018 70.7063 102.07 70.6025 102.115C70.5113 102.156 70.4188 102.201 70.3275 102.241C70.23 102.288 70.1375 102.328 70.04 102.369C69.9425 102.409 69.845 102.454 69.7475 102.495C69.655 102.535 69.57 102.575 69.4775 102.609C69.38 102.655 69.2763 102.695 69.1738 102.735C69.0813 102.77 68.995 102.805 68.9088 102.845C68.8063 102.885 68.7025 102.931 68.5938 102.971C68.5125 103.005 68.4275 103.034 68.3463 103.069C68.2313 103.115 68.1225 103.155 68.0138 103.195C67.9388 103.224 67.87 103.246 67.79 103.275C67.6688 103.321 67.5425 103.361 67.4225 103.408C67.3938 103.419 67.365 103.425 67.3363 103.436C66.9975 103.556 66.6588 103.665 66.3138 103.775C66.3088 103.775 66.3088 103.775 66.3025 103.78C66.1588 103.826 66.0163 103.873 65.8725 103.913C65.82 103.93 65.7688 103.948 65.7113 103.959C65.5738 103.999 65.4363 104.039 65.2925 104.079C65.235 104.096 65.1713 104.114 65.1138 104.13C64.9763 104.171 64.8388 104.205 64.7013 104.245C64.6375 104.263 64.58 104.274 64.5225 104.291C64.38 104.331 64.2413 104.366 64.0988 104.4C64.0413 104.411 63.9888 104.424 63.9375 104.44C63.7888 104.475 63.6388 104.51 63.49 104.544C63.455 104.55 63.415 104.561 63.375 104.566C62.4625 104.774 61.5375 104.94 60.6013 105.073C60.5788 105.078 60.5563 105.078 60.5325 105.084C60.3663 105.106 60.1938 105.13 60.0275 105.153C59.9938 105.159 59.9588 105.159 59.9238 105.164C59.7575 105.186 59.5975 105.204 59.43 105.221C59.39 105.228 59.3563 105.233 59.3213 105.233C59.155 105.25 58.9888 105.268 58.8163 105.279C58.7875 105.279 58.7588 105.285 58.73 105.285C58.5525 105.301 58.3738 105.314 58.1963 105.33C53.0125 105.239 48.1038 103.844 43.7 101.421L41.0188 101.433H40.755L34.9325 101.455L31.695 101.461C36.8388 104.63 42.2188 106.634 46.7713 107.983C46.8113 107.994 46.8575 108.011 46.8975 108.023C46.9438 108.04 46.995 108.058 47.0413 108.069C47.0875 108.086 47.1325 108.098 47.1788 108.115C47.23 108.131 47.2825 108.149 47.3288 108.16C47.3913 108.184 47.46 108.201 47.5238 108.224C47.5688 108.235 47.615 108.253 47.6675 108.27C47.7125 108.281 47.7525 108.299 47.7988 108.31C47.8388 108.321 47.885 108.333 47.925 108.35C47.9888 108.368 48.0463 108.385 48.1088 108.408C48.155 108.419 48.2013 108.436 48.2413 108.448C48.2813 108.459 48.3213 108.47 48.3613 108.483C48.4013 108.494 48.4363 108.505 48.4713 108.516C48.5113 108.528 48.545 108.54 48.58 108.551C48.6425 108.568 48.7063 108.585 48.7638 108.603C48.7975 108.614 48.8325 108.625 48.8725 108.631C48.9075 108.643 48.9363 108.649 48.97 108.66C49.005 108.666 49.0388 108.678 49.0738 108.689C49.1313 108.7 49.1825 108.718 49.2338 108.729C49.2625 108.735 49.2913 108.746 49.32 108.751C49.355 108.758 49.3838 108.769 49.4125 108.775C49.4413 108.786 49.47 108.793 49.4988 108.798C49.5325 108.809 49.5675 108.815 49.6013 108.821C49.6425 108.833 49.6763 108.838 49.7163 108.85C49.745 108.855 49.7738 108.861 49.7975 108.873C49.8263 108.879 49.8488 108.884 49.8713 108.89C49.895 108.895 49.9238 108.901 49.9525 108.906C49.9813 108.913 50.01 108.924 50.0438 108.93C50.0725 108.935 50.1013 108.941 50.1238 108.953C50.1413 108.959 50.1588 108.959 50.1763 108.964C50.1988 108.97 50.2213 108.976 50.245 108.981C50.2625 108.988 50.2738 108.988 50.2913 108.993C50.32 108.999 50.3475 109.005 50.3763 109.01C50.3888 109.016 50.405 109.016 50.4175 109.021C50.4338 109.028 50.4513 109.028 50.4625 109.033C50.475 109.033 50.4863 109.039 50.4975 109.039C50.52 109.045 50.5438 109.05 50.56 109.056C50.5725 109.056 50.5775 109.056 50.5838 109.061C50.595 109.068 50.6125 109.068 50.6175 109.068C50.6238 109.068 50.63 109.068 50.635 109.068C50.6525 109.074 50.6638 109.074 50.675 109.074C50.6863 109.074 50.6988 109.079 50.7038 109.079C50.7038 109.079 50.7038 109.079 50.71 109.079C50.715 109.079 50.715 109.079 50.715 109.079C51.0138 109.154 51.3125 109.234 51.6113 109.309C53.9538 110.646 56.6575 112.283 57.3063 114.911C59.0113 112.294 62.02 110.009 65.08 109.039C71.7975 107.426 78.21 104.498 83.94 101.238C85.6213 101.576 85.6163 103.539 86.2825 104.544C89.9788 103.895 93.0113 101.278 95.0713 98.3325C96.0013 98.74 97.38 98.9988 98.8438 98.9988C102.156 98.9988 105.905 97.6838 105.843 93.7738C100.795 93.4125 99.8138 88.4875 98.4825 84.8813Z" fill="white"></path><path d="M43.7175 48.4512C43.8313 48.4512 43.9463 48.4512 44.0613 48.445C44.085 48.445 44.1125 48.445 44.1363 48.445C44.2513 48.44 44.3663 48.4337 44.48 48.4275C44.5038 48.4275 44.5263 48.4225 44.5438 48.4225C44.6475 48.4162 44.7563 48.405 44.865 48.3987C44.8825 48.3987 44.905 48.3987 44.9288 48.3937C45.06 48.3825 45.1863 48.37 45.3188 48.3587C45.4513 48.3475 45.5825 48.3362 45.7088 48.325C45.715 48.325 45.72 48.325 45.72 48.325C45.835 48.3137 45.9563 48.3075 46.0763 48.3012C46.105 48.3012 46.1338 48.2962 46.1625 48.2962C46.2838 48.29 46.3975 48.285 46.5188 48.2787C46.5363 48.2787 46.5525 48.2787 46.57 48.2787C46.6738 48.2725 46.7825 48.2725 46.8863 48.2725C46.8975 48.2725 46.915 48.2725 46.9325 48.2725C46.9438 48.2725 46.955 48.2725 46.9663 48.2725C46.9838 48.2725 46.995 48.2725 47.0063 48.2725C47.0813 48.2725 47.15 48.2725 47.225 48.2787C47.23 48.2787 47.23 48.2787 47.2363 48.2787C47.305 48.285 47.3738 48.285 47.4425 48.29C47.455 48.29 47.4713 48.29 47.4825 48.29C47.5525 48.2962 47.615 48.3012 47.6838 48.3075C47.695 48.3075 47.7125 48.3137 47.7238 48.3137C47.7938 48.325 47.8563 48.33 47.925 48.3412C47.9313 48.3412 47.9313 48.3412 47.9363 48.3412C48 48.3537 48.0625 48.365 48.12 48.3825C48.1313 48.3825 48.1438 48.3875 48.155 48.3875C48.2125 48.405 48.275 48.4225 48.3325 48.44C48.3438 48.445 48.3563 48.445 48.3675 48.4512C48.425 48.4737 48.4875 48.4912 48.54 48.5137C48.54 48.5137 48.545 48.52 48.5513 48.52C48.6025 48.5425 48.6538 48.5662 48.7063 48.595C48.7175 48.6 48.7288 48.6062 48.735 48.6112C48.7863 48.64 48.8375 48.6687 48.8838 48.6975C48.895 48.7037 48.9075 48.7087 48.9125 48.7212C48.9588 48.755 49.01 48.79 49.0563 48.8237L49.0625 48.83C49.1075 48.8637 49.1475 48.905 49.1888 48.945C49.1938 48.95 49.205 48.9612 49.2113 48.9675C49.2513 49.0075 49.2913 49.0537 49.3263 49.1C49.3313 49.1112 49.3375 49.1162 49.3488 49.1287C49.3888 49.1737 49.4238 49.2262 49.4525 49.2837C49.4525 49.2837 49.4525 49.2887 49.4575 49.2887C49.4863 49.3412 49.515 49.3987 49.5438 49.4612C49.55 49.4725 49.5563 49.4837 49.5613 49.4962C49.585 49.5537 49.6125 49.6162 49.6363 49.685C49.6413 49.6962 49.6475 49.7137 49.6475 49.725C49.67 49.7937 49.6938 49.8637 49.7113 49.9437C49.7275 50.0187 49.745 50.0987 49.7563 50.1787C49.7563 50.1962 49.7625 50.2075 49.7625 50.225C49.7738 50.305 49.78 50.3912 49.785 50.4775C49.785 50.495 49.7913 50.5112 49.7913 50.5287C49.7963 50.6212 49.8025 50.7125 49.8025 50.8162C49.78 51.7975 48.9413 52.7387 48.47 53.71C48.23 54.1287 47.9938 54.5362 47.8388 54.9262C50.5313 55.4025 49.3775 57.3887 48.6888 57.895C48.1725 58.3075 47.6438 58.945 47.5 59.8812C47.7475 61.1212 48.62 62.4525 49.3488 63.56C49.825 64.2375 50.5888 64.76 51.5188 65.1562C51.7775 65.265 52.0475 65.3637 52.3288 65.4487C52.4488 65.4837 52.5638 65.5238 52.69 65.5525C52.9088 65.6162 53.1388 65.6737 53.3625 65.725C53.5913 65.7762 53.8213 65.8225 54.0563 65.8625C54.8313 66 55.6413 66.0812 56.445 66.1213C56.8475 66.1437 57.2425 66.15 57.6388 66.15C57.72 66.15 57.7938 66.15 57.8688 66.15C58.1788 66.15 58.4888 66.1387 58.7875 66.1262C59.1488 66.11 59.4938 66.0812 59.8263 66.0525C59.9875 66.035 60.1425 66.0175 60.2975 66C61.4 65.8687 62.2838 65.6562 62.755 65.415C63.1338 65.22 63.535 64.955 63.9313 64.6225C64.0975 64.4787 64.2588 64.335 64.4138 64.1975C64.5913 64.0312 64.77 63.8475 64.9425 63.6525C65.24 63.5662 65.5563 63.4912 65.8725 63.4175C66.0438 63.3775 66.1938 63.3487 66.3313 63.32C66.4238 63.3025 66.515 63.285 66.6238 63.2675C66.6588 63.2625 66.6875 63.2562 66.7213 63.25H66.75C66.7788 63.245 66.8075 63.245 66.8363 63.2387H66.8425C67.5088 63.1362 68.1688 63.0837 68.8063 63.0837C69.9775 63.0837 71.1775 63.25 72.3713 63.5775C71.8263 64.5825 71.24 65.5525 70.6663 66.35C69.9025 67.4412 68.9838 68.3487 67.985 69.0837C67.7663 69.2437 67.5488 69.3988 67.3188 69.5425C67.0725 69.7037 66.8138 69.8525 66.5613 69.9962C66.2338 70.18 65.895 70.3462 65.5625 70.5012C65.5163 70.5012 65.4763 70.5012 65.43 70.5012C64.2413 70.5012 63.0938 70.8737 62.1113 71.5637C62.1063 71.5637 62.1 71.5637 62.0888 71.5637C61.1813 71.69 60.275 71.7587 59.385 71.7587C59.3438 71.7587 59.3038 71.7587 59.2638 71.7587C58.965 71.7587 58.6613 71.7475 58.3625 71.73C58.2013 71.7188 58.0413 71.7125 57.8863 71.7012C57.765 71.695 57.645 71.69 57.525 71.6775C57.4838 71.6775 57.4438 71.6725 57.3975 71.6725C57.1625 71.655 56.9325 71.6325 56.6975 71.6087C56.4625 71.5862 56.2325 71.5512 56.0025 71.5175C55.395 71.425 54.7913 71.305 54.2063 71.155C53.695 71.0287 53.19 70.8737 52.6963 70.7025C52.4725 70.6275 52.2538 70.5475 52.03 70.455C51.8125 70.3687 51.5875 70.2775 51.375 70.18C50.8588 69.9562 50.3538 69.7037 49.86 69.4225C47.7763 68.2512 45.8813 66.6262 44.2563 64.56C44.2563 64.56 44.1988 64.49 44.1075 64.405C44.0438 64.4212 43.975 64.45 43.9125 64.4787L43.8888 64.49L43.8713 64.5025C41.8338 66.2987 40.8288 88.0512 45.7775 91.7362C49.55 93.9637 51.49 93.9812 53.3338 93.9812C58.345 93.9812 58.5925 99.71 58.5925 99.71L44.09 99.7787H43.9L42.9125 99.785H41.77L40.9613 99.79H40.6975L39.555 99.7962L38.3375 99.8025L34.8813 99.8187L32.005 99.825H26.27L13.8113 99.8425C13.0075 96.0537 16.785 94.0037 19.9313 93.5737C19.9425 93.5737 19.9488 93.5675 19.96 93.5675C20.305 93.5212 20.6375 93.4925 20.965 93.4875C20.97 93.4875 20.97 93.4875 20.9763 93.4875C21.0338 93.4875 21.0963 93.4875 21.1538 93.4875C21.4525 93.4875 21.745 93.47 22.0325 93.4475C22.3713 93.4187 22.7038 93.3725 23.0263 93.315C23.1063 93.2975 23.1863 93.2862 23.2663 93.2687C23.4963 93.2175 23.7263 93.16 23.95 93.0912C23.9675 93.085 23.9788 93.085 23.9963 93.08C24.2313 93.005 24.4613 92.93 24.685 92.8387C26.7463 92.0237 28.4113 90.4562 29.7663 88.3262C29.9375 88.0625 30.0988 87.7812 30.26 87.5C30.4088 87.235 30.5525 86.9712 30.69 86.6962C30.7013 86.6675 30.7138 86.6387 30.73 86.615C30.845 86.3862 30.9538 86.1562 31.0638 85.9212C31.0975 85.84 31.1325 85.76 31.1725 85.6737C31.2588 85.485 31.3388 85.2887 31.4188 85.0887C31.4763 84.9562 31.5288 84.8187 31.58 84.6812C31.58 84.6812 31.6488 84.7787 31.5863 84.6637C34.25 77.89 35.1275 67.9812 35.4263 57.74C35.6163 51.0687 35.7488 44.1512 35.5475 38.0887C35.5475 38.0837 35.5475 38.0712 35.5475 38.0662C35.5475 38.055 35.5475 38.0425 35.5475 38.0262L36.655 36.8025C36.655 36.8025 36.655 36.8025 36.6613 36.8025L36.6725 36.7912L36.6788 36.78C37.3725 36.0112 38.1025 35.2362 38.8538 34.4725L39.0038 34.3175C39.9275 33.4387 41.3225 32.2387 43.1375 31.0225C43.1375 31.0512 43.1425 31.0737 43.1425 31.1025C43.1425 31.1025 41.3913 39.18 42.7013 46.625C42.815 46.9187 43.4363 48.4512 43.7175 48.4512Z" fill="white"></path><path d="M42.2988 29.5988C42.5225 29.4488 42.7525 29.3 42.9875 29.15C43.04 29.1163 43.0975 29.0813 43.1488 29.0475C43.315 28.9438 43.4763 28.84 43.6475 28.7375C43.7625 28.6688 43.8838 28.6 43.9988 28.53C43.9988 28.53 44.0038 28.53 44.0038 28.525C44.1075 28.4675 44.2113 28.4038 44.3138 28.3463C44.4863 28.2488 44.6638 28.1513 44.8425 28.0488C44.8538 28.0425 44.86 28.0425 44.8713 28.0363C47.3513 26.6825 50.3188 25.4713 53.735 24.8163C55.8138 24.5525 58.2875 24.3575 60.2338 24.3113C61.1125 24.34 61.9688 24.3913 62.795 24.46C63.1625 24.5063 63.5588 24.5463 63.995 24.57C64.0413 24.575 64.0813 24.5813 64.1263 24.5863C64.655 24.6438 65.1713 24.7188 65.6775 24.7988C65.6075 24.4425 65.5275 24.0925 65.4363 23.7538C65.4125 23.685 65.39 23.6225 65.3675 23.5538C65.0513 22.64 64.6613 21.6125 64.2588 20.6713L64.2475 20.6538L63.8913 19.805C63.8863 19.805 63.88 19.805 63.8738 19.805C63.7713 19.7925 63.6675 19.7875 63.5638 19.7813C63.4838 19.7763 63.3975 19.77 63.3175 19.765C63.2088 19.7588 63.0988 19.7475 62.99 19.7413C62.9038 19.7363 62.8175 19.7363 62.7375 19.73C62.6338 19.7238 62.5188 19.7188 62.41 19.7188C62.3238 19.7125 62.2375 19.7125 62.1513 19.7125C62.0425 19.7125 61.9338 19.7075 61.825 19.7013C61.7388 19.7013 61.6463 19.7013 61.56 19.7013C61.4625 19.7013 61.3713 19.695 61.2788 19.695C61.25 19.695 61.2213 19.695 61.1925 19.695C60.6475 19.6663 60.085 19.65 59.5288 19.65C59.2638 19.65 59 19.655 58.7363 19.6613C54.2863 19.6613 50.0725 20.35 46.1288 21.5838C46.1163 21.59 46.1 21.59 46.0875 21.5963C45.7725 21.6938 45.4625 21.7963 45.1525 21.9C45.1463 21.9 45.1463 21.9 45.1413 21.9063C45.1125 21.9175 45.0838 21.9225 45.055 21.935C45.0088 21.9513 44.9625 21.9625 44.9175 21.98C44.67 22.0613 44.4288 22.1463 44.1875 22.2325C44.1538 22.245 44.1188 22.2563 44.09 22.2675C43.8025 22.3713 43.5163 22.4738 43.235 22.5825C42.9138 22.7038 42.6038 22.83 42.2875 22.9563C39.945 23.9088 37.855 25 36.0463 26.1313C35.7888 26.2913 35.5363 26.4525 35.2888 26.6188C35.0538 26.7738 34.8188 26.935 34.5888 27.09C34.5713 27.1013 34.5538 27.1125 34.5375 27.13C34.3413 27.2613 34.1525 27.4 33.9688 27.5313C33.905 27.5775 33.8475 27.6175 33.79 27.6638C33.6413 27.7725 33.4925 27.8813 33.3488 27.9913C33.2513 28.065 33.165 28.135 33.0675 28.2088C33.0613 28.215 33.0563 28.22 33.0438 28.2263C33.0438 28.2263 33.0388 28.2263 33.0388 28.2325C20.4075 37.4063 12.7038 52.2513 12.3588 64.1463C12.3525 64.2838 12.3525 64.4163 12.3525 64.5475C12.3525 64.605 12.3475 64.6575 12.3475 64.7088C12.3475 64.7488 12.3475 64.7888 12.3475 64.8238C12.3475 64.835 12.3475 64.8525 12.3475 64.8638C12.3475 64.8988 12.3475 64.9325 12.3475 64.9675C12.3475 76.8213 15.775 85.4675 20.7463 91.8338C20.7575 91.8513 20.775 91.8688 20.7863 91.885L21.935 91.7875C22.2963 91.7588 22.6413 91.7075 22.9575 91.6388C23.1525 91.5988 23.3525 91.5463 23.5488 91.4838C23.7375 91.4263 23.9213 91.3575 24.105 91.2888C26.1488 90.4738 27.825 88.7338 29.22 85.9663C29.2263 85.955 29.2325 85.9438 29.2375 85.9375L29.2488 85.915L29.2775 85.8638L29.8238 84.7725C29.8175 84.755 29.8063 84.7438 29.8 84.7263C29.7888 84.6975 29.7713 84.6688 29.76 84.6413C29.7488 84.6175 29.7375 84.6 29.7313 84.5775C29.6513 84.4163 29.5763 84.2563 29.4963 84.095C29.485 84.0663 29.4675 84.0375 29.4563 84.0088C29.375 83.8313 29.29 83.6588 29.2088 83.4863C29.1975 83.47 29.1913 83.4525 29.1863 83.435C29.1113 83.28 29.0425 83.1313 28.9738 82.9763C28.9625 82.9413 28.945 82.9075 28.9275 82.8788C28.8538 82.7113 28.7788 82.5513 28.71 82.385C28.7038 82.3675 28.6988 82.3563 28.6863 82.3388C28.6238 82.19 28.56 82.0463 28.4975 81.9025C28.48 81.8675 28.4688 81.8338 28.4513 81.7988C28.3825 81.6438 28.3188 81.4888 28.25 81.34C28.245 81.3288 28.245 81.3225 28.2388 81.3113C28.1763 81.1675 28.1188 81.03 28.0613 80.8925C28.0488 80.8575 28.0325 80.8175 28.015 80.7825C27.9575 80.64 27.8938 80.4963 27.8375 80.3575C27.315 78.9513 26.7638 77.4763 26.235 75.9325C26.235 75.9263 26.235 75.9263 26.235 75.9263C26.1725 75.7425 26.1088 75.5525 26.0463 75.3638C26.0288 75.3063 26.0113 75.255 25.9888 75.2025C25.9425 75.06 25.8913 74.91 25.845 74.7613C25.8275 74.7088 25.8163 74.6638 25.7988 74.6113C25.6725 74.215 25.5525 73.82 25.4313 73.4175C25.42 73.3825 25.4088 73.3425 25.3975 73.3088C25.345 73.13 25.2938 72.9463 25.2425 72.7688C25.2363 72.7463 25.225 72.7175 25.2188 72.6938C25.0988 72.2688 24.9838 71.8388 24.8688 71.4025C24.8625 71.385 24.8625 71.3675 24.8575 71.3563C24.685 70.6913 24.53 70.0138 24.3863 69.3188C24.1 67.9175 23.875 66.4713 23.7488 64.9788C23.7488 58.9225 24.9038 53.1638 26.9763 47.9863C27.0563 47.8138 27.1425 47.6363 27.2338 47.4638C27.2575 47.4175 27.28 47.3713 27.3025 47.3263C27.3838 47.1713 27.4575 47.01 27.5438 46.855C27.5788 46.7863 27.6125 46.7225 27.6475 46.66C27.7225 46.51 27.8025 46.3675 27.8825 46.2175C27.9225 46.1375 27.9638 46.0625 28.0088 45.9825C28.0838 45.845 28.1638 45.7013 28.245 45.5638C28.29 45.4775 28.3425 45.3913 28.3875 45.305C28.4625 45.1675 28.5425 45.035 28.6238 44.8975C28.675 44.805 28.7325 44.7138 28.79 44.6225C28.865 44.49 28.945 44.3575 29.025 44.2263C29.0825 44.1288 29.1463 44.03 29.2088 43.9275C29.29 43.8013 29.3638 43.6688 29.45 43.5425C29.5188 43.4388 29.5825 43.3363 29.6513 43.2275C29.7313 43.1 29.8125 42.98 29.8925 42.8538C29.9675 42.745 30.0363 42.635 30.11 42.5263C30.1913 42.4063 30.2713 42.28 30.3575 42.1588C30.4325 42.0438 30.5125 41.93 30.5925 41.815C30.6725 41.6938 30.7538 41.5788 30.84 41.4588C30.92 41.3388 31.0063 41.2175 31.0925 41.1025C31.1788 40.9875 31.2588 40.8738 31.3388 40.7588C31.4313 40.6325 31.5225 40.5063 31.615 40.385C31.695 40.2763 31.775 40.1613 31.8613 40.0525C31.9588 39.92 32.0625 39.7888 32.16 39.6563C32.24 39.5525 32.3213 39.4438 32.4013 39.34C32.51 39.1975 32.625 39.0588 32.7338 38.915C32.815 38.8175 32.8888 38.72 32.9638 38.6225C33.09 38.4625 33.2275 38.3013 33.3538 38.14C33.4225 38.06 33.4863 37.98 33.555 37.9C33.6638 37.7613 33.785 37.6238 33.8938 37.4913C33.9 37.4863 33.9 37.4863 33.905 37.48C33.9913 37.3775 34.0775 37.28 34.1638 37.1763C34.33 36.975 34.5088 36.7738 34.68 36.5788C34.68 36.5788 34.68 36.5788 34.68 36.5738C34.7263 36.5213 34.7725 36.47 34.8188 36.4188C35.03 36.1775 35.2425 35.9363 35.4613 35.695C35.4675 35.6888 35.4725 35.6838 35.4788 35.6725C35.725 35.3963 35.9838 35.1213 36.2363 34.845C36.4888 34.57 36.7475 34.3 37.0113 34.025C37.2413 33.7838 37.47 33.5475 37.7 33.3125C37.7 33.3063 37.7 33.3063 37.7 33.3013C38.5675 32.4625 39.8188 31.3613 41.4263 30.2125C41.7188 29.9888 42.0063 29.7938 42.2988 29.5988Z" fill="white"></path></svg>