<svg xmlns="http://www.w3.org/2000/svg" xmlns:xlink="http://www.w3.org/1999/xlink" width="65.554" height="65.565" viewBox="0 0 65.554 65.565">
  <defs>
    <linearGradient id="linear-gradient" x1="0.5" y1="0.392" x2="0.5" y2="1.196" gradientUnits="objectBoundingBox">
      <stop offset="0" stop-color="#1e1e1e"/>
      <stop offset="1" stop-color="#414141"/>
    </linearGradient>
  </defs>
  <g id="Groupe_17619" data-name="Groupe 17619" transform="translate(10924.695 2223.503)">
    <g id="Groupe_17618" data-name="Groupe 17618" transform="translate(-10924.695 -2223.003)">
      <path id="Soustraction_574" data-name="Soustraction 574" d="M64.5,19.885V44.62A19.885,19.885,0,0,1,44.62,64.5H19.885A19.885,19.885,0,0,1,0,44.62V19.885A19.885,19.885,0,0,1,19.885,0H44.62A19.885,19.885,0,0,1,64.5,19.885Z" transform="translate(0.548)" fill="#684cee"/>
      <path id="Soustraction_574_-_Contour" data-name="Soustraction 574 - Contour" d="M19.885-.5H44.62A20.368,20.368,0,0,1,65,19.885V44.62A20.368,20.368,0,0,1,44.62,65H19.885A20.368,20.368,0,0,1-.5,44.62V19.885A20.368,20.368,0,0,1,19.885-.5ZM44.62,64A19.368,19.368,0,0,0,64,44.62V19.885A19.368,19.368,0,0,0,44.62.5H19.885A19.368,19.368,0,0,0,.5,19.885V44.62A19.368,19.368,0,0,0,19.885,64Z" transform="translate(0.548)" fill="#583dd9"/>
      <g id="Groupe_16855" data-name="Groupe 16855" transform="translate(0.548)">
        <path id="Rectangle_3372" data-name="Rectangle 3372" d="M14.671,0H37.492a14.778,14.778,0,0,1,2.957.3A14.592,14.592,0,0,1,45.7,2.506,14.713,14.713,0,0,1,51.01,8.96a14.6,14.6,0,0,1,.855,2.754,14.778,14.778,0,0,1,.3,2.957V37.492a14.778,14.778,0,0,1-.3,2.957A14.592,14.592,0,0,1,49.658,45.7,14.713,14.713,0,0,1,43.2,51.01a14.6,14.6,0,0,1-2.754.855,14.778,14.778,0,0,1-2.957.3H14.671a14.778,14.778,0,0,1-2.957-.3,14.592,14.592,0,0,1-5.246-2.208A14.713,14.713,0,0,1,1.153,43.2,14.6,14.6,0,0,1,.3,40.449,14.778,14.778,0,0,1,0,37.492V14.671a14.778,14.778,0,0,1,.3-2.957A14.592,14.592,0,0,1,2.506,6.468,14.713,14.713,0,0,1,8.96,1.153,14.6,14.6,0,0,1,11.715.3,14.778,14.778,0,0,1,14.671,0ZM37.492,51.678a14.293,14.293,0,0,0,2.859-.288,14.107,14.107,0,0,0,5.072-2.134,14.228,14.228,0,0,0,5.14-6.242,14.113,14.113,0,0,0,.827-2.663,14.293,14.293,0,0,0,.288-2.859V14.671a14.293,14.293,0,0,0-.288-2.859A14.107,14.107,0,0,0,49.256,6.74,14.228,14.228,0,0,0,43.014,1.6,14.113,14.113,0,0,0,40.351.773,14.293,14.293,0,0,0,37.492.485H14.671a14.293,14.293,0,0,0-2.859.288A14.107,14.107,0,0,0,6.74,2.908,14.228,14.228,0,0,0,1.6,9.149a14.113,14.113,0,0,0-.827,2.663,14.293,14.293,0,0,0-.288,2.859V37.492a14.293,14.293,0,0,0,.288,2.859,14.107,14.107,0,0,0,2.134,5.072,14.228,14.228,0,0,0,6.242,5.14,14.113,14.113,0,0,0,2.663.827,14.293,14.293,0,0,0,2.859.288Z" transform="translate(57.895 5.793) rotate(90)" fill="#583dd9"/>
        <path id="Rectangle_3373" data-name="Rectangle 3373" d="M11.276,0H27.6a11.358,11.358,0,0,1,2.272.229,11.216,11.216,0,0,1,4.033,1.7,11.308,11.308,0,0,1,4.085,4.961A11.222,11.222,0,0,1,38.646,9a11.358,11.358,0,0,1,.229,2.272V27.6a11.358,11.358,0,0,1-.229,2.272,11.216,11.216,0,0,1-1.7,4.033,11.308,11.308,0,0,1-4.961,4.085,11.222,11.222,0,0,1-2.117.657,11.358,11.358,0,0,1-2.272.229H11.276A11.358,11.358,0,0,1,9,38.646a11.216,11.216,0,0,1-4.033-1.7A11.308,11.308,0,0,1,.886,31.988a11.221,11.221,0,0,1-.657-2.117A11.358,11.358,0,0,1,0,27.6V11.276A11.358,11.358,0,0,1,.229,9a11.216,11.216,0,0,1,1.7-4.033A11.308,11.308,0,0,1,6.887.886,11.221,11.221,0,0,1,9,.229,11.358,11.358,0,0,1,11.276,0ZM27.6,38.39a10.872,10.872,0,0,0,2.175-.219,10.731,10.731,0,0,0,3.858-1.624,10.823,10.823,0,0,0,3.91-4.748,10.735,10.735,0,0,0,.629-2.025A10.872,10.872,0,0,0,38.39,27.6V11.276A10.872,10.872,0,0,0,38.17,9.1a10.731,10.731,0,0,0-1.624-3.858A10.824,10.824,0,0,0,31.8,1.333,10.735,10.735,0,0,0,29.774.7,10.872,10.872,0,0,0,27.6.485H11.276A10.872,10.872,0,0,0,9.1.7,10.731,10.731,0,0,0,5.243,2.328a10.823,10.823,0,0,0-3.91,4.748A10.735,10.735,0,0,0,.7,9.1a10.872,10.872,0,0,0-.219,2.175V27.6A10.872,10.872,0,0,0,.7,29.774a10.731,10.731,0,0,0,1.624,3.858,10.823,10.823,0,0,0,4.748,3.91A10.735,10.735,0,0,0,9.1,38.17a10.872,10.872,0,0,0,2.175.219Z" transform="translate(51.251 12.437) rotate(90)" fill="#583dd9"/>
        <path id="Tracé_7258" data-name="Tracé 7258" d="M6571.051-5907.544h-.485v-64.505h.485Z" transform="translate(-6538.556 5972.049)" fill="#583dd9"/>
        <path id="Tracé_7259" data-name="Tracé 7259" d="M.485,64.5H0V0H.485Z" transform="translate(64.505 32.01) rotate(90)" fill="#583dd9"/>
      </g>
      <g id="Groupe_16856" data-name="Groupe 16856" transform="translate(15.539 14.99)">
        <path id="Ellipse_246" data-name="Ellipse 246" d="M17.277,2.879A14.4,14.4,0,0,0,7.1,27.457,14.4,14.4,0,1,0,27.457,7.1a14.3,14.3,0,0,0-10.18-4.217m0-2.879A17.277,17.277,0,1,1,0,17.277,17.277,17.277,0,0,1,17.277,0Z" transform="translate(0 0)" fill="#f1f1ef"/>
        <path id="Union_122" data-name="Union 122" d="M7.359,22.6a12.3,12.3,0,0,1-5.151-3.972A11.383,11.383,0,0,1,.1,13.356,12.37,12.37,0,0,1,.566,8.082,10.611,10.611,0,0,1,3.1,3.773c.077-.081.157-.162.236-.242A11.676,11.676,0,0,1,11.617,0a12.173,12.173,0,0,1,8.333,3.456l.02.019.019.019a11.4,11.4,0,0,1,3.362,8.625,12.179,12.179,0,0,1-3.5,7.976A10.679,10.679,0,0,1,15.7,22.7l-1.023.346-.766-.761c-.7-.694-1.445-1.433-2.277-2.254-.524.495-1.073,1.01-1.633,1.535l-.555.52-1.038.969ZM.387,13.319A11.26,11.26,0,0,0,7.473,22.34l.874.375.7-.649.2-.192.555-.519c.467-.438,1.108-1.04,1.806-1.7-.7.658-1.339,1.261-1.806,1.7l-.555.519-.2.192h0l-.7.649-.874-.375A11.26,11.26,0,0,1,.387,13.319a11.819,11.819,0,0,1-.1-1.521A11.819,11.819,0,0,0,.387,13.319Zm13.725,8.761.639.635.854-.289A11.462,11.462,0,0,0,23.076,11.6a11.462,11.462,0,0,1-7.471,10.824l-.854.289-.639-.635c-.845-.839-1.686-1.67-2.476-2.45C12.426,20.409,13.267,21.24,14.112,22.079Zm1.371-2.744.034-.016Zm.042-.02.03-.015Zm.034-.016.072-.036ZM17.6,17.825a7.745,7.745,0,0,1-1.973,1.438,8.024,8.024,0,0,0,3.032-2.733A8.46,8.46,0,0,1,17.6,17.825ZM11.712,5.694a5.74,5.74,0,0,1,4.036,1.63,6.533,6.533,0,0,1,1.824,4,5.906,5.906,0,0,1-1.824,4.754c-.38.38-.912.9-1.585,1.545l1.377,1.361A7.448,7.448,0,0,0,17.4,17.621,8.3,8.3,0,0,0,17.531,5.97a8.111,8.111,0,0,0-11.919.22l-.033.033A8.2,8.2,0,0,0,3.562,12.9a7.843,7.843,0,0,0,4.171,6c.363-.34.861-.808,1.41-1.326l-.014-.014c-.879-.864-1.572-1.545-1.914-1.887a5.57,5.57,0,0,1-1.538-4.042A5.951,5.951,0,0,1,7.394,7.5,6.066,6.066,0,0,1,11.7,5.694ZM3.276,12.941a8.09,8.09,0,0,0,3.558,5.747A8.091,8.091,0,0,1,3.276,12.94,8.938,8.938,0,0,1,3.2,11.77,8.94,8.94,0,0,0,3.276,12.941Zm12.269,2.936c-.459.459-1.1,1.077-1.795,1.745.7-.668,1.336-1.287,1.795-1.745A6.3,6.3,0,0,0,16.6,14.494,6.3,6.3,0,0,1,15.544,15.877Zm-8.126-.4c.341.341,1.024,1.012,1.912,1.885l.228.224-.228-.224c-.888-.873-1.571-1.544-1.912-1.885L7.348,15.4Zm11.245,1.053.013-.019Zm.014-.022.052-.08Zm.054-.084.01-.016Zm.015-.023.01-.015Zm.015-.023.009-.015Zm.014-.023.02-.033Zm.023-.036.007-.012Zm.015-.024.007-.011Zm.015-.024.006-.01Zm.016-.025.005-.008Zm.017-.028,0,0Zm.017-.029,0,0Zm.015-.025,0,0Zm.015-.025,0,0Zm.016-.027,0,0ZM9.861,9.97a2.515,2.515,0,0,0-.7,1.729,2.111,2.111,0,0,0,.517,1.512c.346.346,1.028,1.016,1.891,1.864l.1.1c.689-.661,1.229-1.186,1.606-1.563a2.646,2.646,0,0,0,0-3.821,2.261,2.261,0,0,0-1.574-.608h0A2.6,2.6,0,0,0,9.861,9.97Zm3.623-.382a2.935,2.935,0,0,1,.154,4.064,2.935,2.935,0,0,0-.154-4.064Zm2.06-2.06A6.182,6.182,0,0,1,17.3,11.793a6.183,6.183,0,0,0-1.758-4.266A5.65,5.65,0,0,0,7.6,7.706,5.775,5.775,0,0,1,11.7,5.982,5.434,5.434,0,0,1,15.544,7.528ZM9.657,9.767a2.8,2.8,0,0,0-.78,1.927q0,.026,0,.052,0-.026,0-.052a2.8,2.8,0,0,1,.78-1.927l.084-.081ZM5.964,11.739c0-.032,0-.064,0-.1C5.964,11.674,5.964,11.707,5.964,11.739Zm0-.194A5.7,5.7,0,0,1,7.6,7.706,5.7,5.7,0,0,0,5.967,11.545ZM9.759,9.669a2.948,2.948,0,0,1,1-.61A2.947,2.947,0,0,0,9.759,9.669ZM5.376,6.021a6.1,6.1,0,0,0-.573.665A6.1,6.1,0,0,1,5.376,6.021Zm13.1.595h0Zm-.085-.11h0Zm-.021-.027h0Zm-.022-.027h0Zm-.065-.081,0,0Zm-.021-.025,0,0Zm-.023-.027,0,0Zm-.068-.081,0-.006Zm-.022-.025-.005-.006Zm-.022-.025-.006-.007Zm-.049-.057,0,0Zm-.022-.025L18.047,6.1Zm-.022-.024-.007-.008Zm-.024-.026L18,6.049ZM17.956,6l-.006-.007ZM5.4,5.992Zm12.531-.017-.009-.009Zm-.023-.025L17.9,5.943Zm-.024-.026-.006-.007Zm-12.415,0A8.5,8.5,0,0,1,11.6,3.2,8.5,8.5,0,0,0,5.472,5.92Zm12.386-.026h0Zm-.023-.025-.007-.007Zm-.024-.025L17.8,5.837Zm-.023-.024-.009-.009ZM17.763,5.8l-.007-.008Zm-.031-.031ZM3.3,3.974l.106-.11Zm.112-.116.015-.015Zm.031-.032.006-.006Zm16.308-.161-.031-.029ZM3.971,3.319l.005,0ZM4,3.3,4,3.289Zm.026-.024.01-.009Zm.027-.024.012-.011Zm.027-.024.014-.013ZM11.62,3.2h0ZM4.1,3.2l.016-.014Zm.028-.024.017-.015ZM4.16,3.15l.019-.016Zm.028-.024.02-.018ZM4.216,3.1l.022-.019Zm.028-.024.024-.02Zm.028-.024L4.3,3.031ZM4.3,3.029l.027-.023ZM4.33,3l.029-.024Zm.029-.024A11.2,11.2,0,0,1,18.1,2.335,11.572,11.572,0,0,0,11.6.288,11.208,11.208,0,0,0,4.359,2.98Zm13.815-.6-.061-.041Z" transform="translate(5.638 5.783)" fill="#f1f1ef"/>
      </g>
      <path id="Tracé_7273" data-name="Tracé 7273" d="M371.957,191.28A19.957,19.957,0,0,1,352,171.322V167h3.813a19.957,19.957,0,0,1,19.957,19.957v4.322Z" transform="translate(-352 -126.215)" fill="url(#linear-gradient)"/>
      <path id="Tracé_7450" data-name="Tracé 7450" d="M-4.375-1.33A1.208,1.208,0,0,1-4.781-.322,1.55,1.55,0,0,1-5.775,0h-2.38l-.07-.07V-4.83l.07-.07h2.24a1.585,1.585,0,0,1,.994.312,1.12,1.12,0,0,1,.406.949,1.247,1.247,0,0,1-.175.668.864.864,0,0,1-.525.381v.07A1.078,1.078,0,0,1-4.375-1.33ZM-5.495-3.5a.6.6,0,0,0-.129-.42.565.565,0,0,0-.431-.14h-1.12l-.07.07v.98l.07.07h1.12A.523.523,0,0,0-5.628-3.1.606.606,0,0,0-5.495-3.5Zm-.56,2.66q.7,0,.7-.63t-.7-.63h-1.12l-.07.07V-.91l.07.07ZM-.1-.07-.175,0h-3.29l-.07-.07V-4.83l.07-.07h3.29l.07.07v.7l-.07.07h-2.31l-.07.07v.98l.07.07h2.17l.07.07v.7l-.07.07h-2.17l-.07.07V-.91l.07.07h2.31l.07.07Zm4.62-4.06-.07.07h-1.4l-.07.07V-.07L2.905,0h-.84L2-.07V-3.99l-.07-.07H.525l-.07-.07v-.7l.07-.07h3.92l.07.07ZM8.645-.07,8.575,0h-.63l-.07-.07-.35-.91-.14-.07H5.635L5.5-.98l-.35.91L5.075,0h-.63l-.07-.07v-.7l1.61-4.06.07-.07h.91l.07.07L8.645-.77ZM7.175-1.96l-.63-1.68h-.07l-.63,1.68.07.07h1.19Z" transform="translate(9.695 54.003) rotate(45)" fill="#f1f1ef"/>
    </g>
  </g>
</svg>
