<svg width="140" height="14" viewBox="0 0 140 14" fill="none" xmlns="http://www.w3.org/2000/svg">
<circle cx="5.64103" cy="7.00016" r="5.64103" fill="white"/>
<rect x="11.7949" y="1.35913" width="11.2821" height="11.2821" fill="white"/>
<path d="M39.8661 11.8462H35.1369L30.021 5.55542V11.8462H26.5558V1.40619H31.3892L36.4158 7.59286V1.40619H39.8661V11.8462ZM47.4574 1.2426C48.3993 1.2426 49.2321 1.29713 49.9559 1.40619C50.6797 1.50534 51.3489 1.67884 51.9636 1.9267C52.5783 2.17457 53.079 2.50175 53.4656 2.90824C53.8622 3.30482 54.1696 3.81046 54.3877 4.42517C54.6058 5.02995 54.7149 5.7438 54.7149 6.5667C54.7149 7.3797 54.6157 8.08363 54.4174 8.6785C54.2291 9.27337 53.9515 9.77901 53.5846 10.1954C53.2277 10.6019 52.7518 10.9341 52.1569 11.1918C51.572 11.4397 50.9077 11.6182 50.1641 11.7272C49.4205 11.8363 48.553 11.8908 47.5615 11.8908C45.1027 11.8908 43.3132 11.4447 42.1928 10.5523C41.0824 9.65012 40.5272 8.25713 40.5272 6.37337C40.5272 4.62841 41.0973 3.33952 42.2374 2.5067C43.3776 1.66397 45.1176 1.2426 47.4574 1.2426ZM47.5913 9.1544C48.6422 9.1544 49.4552 8.94123 50.0303 8.51491C50.6053 8.08858 50.8928 7.43918 50.8928 6.5667C50.8928 5.72397 50.5904 5.08448 49.9857 4.64824C49.3809 4.20209 48.5679 3.97901 47.5467 3.97901C47.0113 3.97901 46.5404 4.0385 46.1339 4.15747C45.7274 4.26653 45.3903 4.43508 45.1226 4.66311C44.8648 4.89115 44.6715 5.1638 44.5426 5.48106C44.4137 5.79833 44.3492 6.16021 44.3492 6.5667C44.3492 7.34995 44.6219 7.97952 45.1672 8.45542C45.7125 8.92141 46.5205 9.1544 47.5913 9.1544ZM67.5652 8.91645C67.5652 9.41217 67.5106 9.83354 67.4016 10.1806C67.3024 10.5176 67.119 10.82 66.8513 11.0877C66.5935 11.3455 66.2267 11.5388 65.7508 11.6677C65.2749 11.7867 64.685 11.8462 63.9811 11.8462H58.3H55.3554V1.40619H62.7913C63.4952 1.40619 64.0901 1.46072 64.5759 1.56978C65.0717 1.67884 65.4633 1.85235 65.7508 2.09029C66.0482 2.31833 66.2614 2.59098 66.3903 2.90824C66.5192 3.21559 66.5836 3.58739 66.5836 4.02363C66.5836 4.96551 66.3457 5.64465 65.8698 6.06106C66.078 6.12055 66.2713 6.21474 66.4498 6.34363C66.6381 6.4626 66.8216 6.63115 67 6.84927C67.1785 7.05747 67.3173 7.34004 67.4164 7.69696C67.5156 8.05388 67.5652 8.46038 67.5652 8.91645ZM58.8354 4.30619V5.3026H62.7467C62.8855 5.3026 62.9995 5.25303 63.0887 5.15388C63.1879 5.05474 63.2375 4.93576 63.2375 4.79696C63.2375 4.65816 63.1879 4.54414 63.0887 4.45491C62.9995 4.35576 62.8855 4.30619 62.7467 4.30619H58.8354ZM63.9216 8.96106C64.0703 8.96106 64.1942 8.91149 64.2934 8.81235C64.3925 8.7132 64.4421 8.59423 64.4421 8.45542C64.4421 8.3067 64.3925 8.18277 64.2934 8.08363C64.1942 7.98448 64.0703 7.93491 63.9216 7.93491H58.8354V8.96106H63.9216ZM68.0487 1.40619H75.7226C75.9209 1.40619 76.1092 1.41115 76.2877 1.42106C76.4662 1.43098 76.714 1.46568 77.0313 1.52517C77.3585 1.57474 77.6509 1.6491 77.9087 1.74824C78.1764 1.83747 78.459 1.98123 78.7564 2.17952C79.0538 2.3679 79.3017 2.59594 79.5 2.86363C79.7082 3.12141 79.8768 3.45354 80.0056 3.86004C80.1444 4.26653 80.2138 4.72756 80.2138 5.24311C80.2138 6.88893 79.5744 8.0638 78.2954 8.76773L80.4369 11.8462L76.4364 11.8313L74.6518 9.37747H71.5138V11.8462H68.0487V1.40619ZM75.3954 6.32876C76.258 6.32876 76.6892 6.00158 76.6892 5.34722C76.6892 4.75235 76.2381 4.45491 75.3359 4.45491H71.5138V6.32876H75.3954ZM90.2013 1.43594L94.8859 11.8462H90.8705L90.0823 10.0913H84.9218L84.1336 11.8462H80.148L84.8177 1.43594H90.2013ZM86.1562 7.08722H88.848L87.4946 4.35081L86.1562 7.08722ZM95.4859 11.8462V1.40619H98.951V11.8462H95.4859ZM113.267 11.8462H108.537L103.421 5.55542V11.8462H99.9563V1.40619H104.79L109.816 7.59286V1.40619H113.267V11.8462ZM114.366 1.40619H125.892V4.30619H117.831V5.22824H125.386V8.00927H117.831V8.94619H125.892V11.8462H114.366V1.40619ZM126.984 1.40619H134.658C134.856 1.40619 135.045 1.41115 135.223 1.42106C135.401 1.43098 135.649 1.46568 135.967 1.52517C136.294 1.57474 136.586 1.6491 136.844 1.74824C137.112 1.83747 137.394 1.98123 137.692 2.17952C137.989 2.3679 138.237 2.59594 138.435 2.86363C138.643 3.12141 138.812 3.45354 138.941 3.86004C139.08 4.26653 139.149 4.72756 139.149 5.24311C139.149 6.88893 138.51 8.0638 137.231 8.76773L139.372 11.8462L135.372 11.8313L133.587 9.37747H130.449V11.8462H126.984V1.40619ZM134.331 6.32876C135.193 6.32876 135.625 6.00158 135.625 5.34722C135.625 4.75235 135.173 4.45491 134.271 4.45491H130.449V6.32876H134.331Z" fill="white"/>
</svg>
