<svg width="289" height="59" viewBox="0 0 289 59" fill="none" xmlns="http://www.w3.org/2000/svg">
<path d="M39.25 46H36.5V43.25V40.5V37.75V35V32.25V29.5H39.25H42V32.25V35V37.75V40.5V43.25V46H39.25ZM22.75 46H20V43.25V40.5V37.75V35V32.25V29.5V26.75V24V21.25V18.5V15.75V13H22.75H25.5V15.75V18.5V21.25V24V26.75V29.5H28.25H31V32.25V35H28.25H25.5V37.75V40.5V43.25V46H22.75ZM36.5 29.5H33.75H31V26.75V24H33.75H36.5V26.75V29.5ZM54.914 46H49.546V28.752H45.366V24.264H49.546V17.488H54.914V24.264H59.138V28.752H54.914V46ZM67.8431 46H62.4751V24.264H67.4031L67.8431 26.816C68.9431 25.012 71.1431 23.604 74.2671 23.604C77.5671 23.604 79.8551 25.232 80.9991 27.74C82.0991 25.232 84.6511 23.604 87.9511 23.604C93.2311 23.604 96.1351 26.772 96.1351 31.788V46H90.8111V33.196C90.8111 30.072 89.1391 28.444 86.5871 28.444C83.9911 28.444 82.0111 30.116 82.0111 33.68V46H76.6431V33.152C76.6431 30.116 75.0151 28.488 72.4631 28.488C69.9111 28.488 67.8431 30.16 67.8431 33.68V46ZM106.817 46H101.493V13.264H106.817V46Z" fill="black"/>
<path d="M136.336 48H130.484L142.1 15.836H147.864L159.48 48H153.54L150.944 40.564H138.932L136.336 48ZM144.256 25.428L140.604 35.812H149.316L145.62 25.428C145.356 24.592 145.048 23.624 144.96 22.964C144.828 23.58 144.564 24.548 144.256 25.428ZM160.888 36.648C160.888 30.312 165.024 25.56 171.228 25.56C174.484 25.56 177.036 26.924 178.312 29.256L178.62 26.264H183.592V46.9C183.592 54.16 179.236 58.692 172.196 58.692C165.948 58.692 161.68 55.128 161.02 49.32H166.388C166.74 52.136 168.896 53.808 172.196 53.808C175.892 53.808 178.268 51.476 178.268 47.868V44.26C176.904 46.284 174.22 47.56 171.096 47.56C164.936 47.56 160.888 42.94 160.888 36.648ZM166.3 36.516C166.3 40.168 168.632 42.896 172.152 42.896C175.848 42.896 178.136 40.3 178.136 36.516C178.136 32.82 175.892 30.268 172.152 30.268C168.588 30.268 166.3 32.952 166.3 36.516ZM198.871 48.572C192.403 48.572 187.871 43.864 187.871 37.132C187.871 30.312 192.315 25.604 198.695 25.604C205.207 25.604 209.343 29.96 209.343 36.736V38.364L192.975 38.408C193.371 42.236 195.395 44.172 198.959 44.172C201.907 44.172 203.843 43.028 204.459 40.96H209.431C208.507 45.712 204.547 48.572 198.871 48.572ZM198.739 30.004C195.571 30.004 193.635 31.72 193.107 34.976H204.019C204.019 31.984 201.951 30.004 198.739 30.004ZM219.007 48H213.639V26.264H218.611L219.051 29.08C220.415 26.88 223.055 25.604 226.003 25.604C231.459 25.604 234.275 28.992 234.275 34.624V48H228.907V35.9C228.907 32.248 227.103 30.488 224.331 30.488C221.031 30.488 219.007 32.776 219.007 36.296V48ZM238.273 37.088C238.273 30.356 242.717 25.604 249.141 25.604C255.081 25.604 259.129 28.904 259.701 34.14H254.333C253.717 31.676 251.913 30.4 249.361 30.4C245.929 30.4 243.641 32.996 243.641 37.088C243.641 41.18 245.753 43.732 249.185 43.732C251.869 43.732 253.761 42.412 254.333 40.036H259.745C259.085 45.096 254.861 48.572 249.185 48.572C242.585 48.572 238.273 43.996 238.273 37.088ZM261.419 58.076V53.588H264.631C266.743 53.588 268.063 53.104 268.987 50.552L269.603 48.924L260.847 26.264H266.523L272.111 42.104L278.007 26.264H283.551L272.903 52.84C271.275 56.888 268.987 58.56 265.423 58.56C263.927 58.56 262.607 58.384 261.419 58.076Z" fill="black"/>
<path d="M13 46L3 35.5L13 25" stroke="#D1A4FF" stroke-width="4"/>
<path d="M115 25L125 35.5L115 46" stroke="#FF843E" stroke-width="4"/>
</svg>

