<svg width="156" height="86" viewBox="0 0 156 86" fill="none" xmlns="http://www.w3.org/2000/svg">
<path d="M23.8043 77.1255C23.6559 76.9642 23.5075 76.8175 23.3443 76.7002C23.1959 76.5828 22.9882 76.5242 22.7211 76.5242C22.5727 76.5242 22.4095 76.5535 22.2166 76.5975C22.0385 76.6415 21.8605 76.7442 21.6972 76.9202C21.534 77.0962 21.4005 77.3456 21.2966 77.6829C21.1927 78.0203 21.1334 78.475 21.1334 79.0324C21.1334 79.6191 21.1927 80.0738 21.2966 80.4112C21.4005 80.7486 21.534 81.0126 21.6972 81.2033C21.8605 81.394 22.0385 81.5113 22.2314 81.57C22.4243 81.6287 22.6024 81.658 22.7804 81.658C22.914 81.658 23.0624 81.6433 23.2107 81.614C23.3591 81.5846 23.5075 81.5553 23.6411 81.526C23.7746 81.4966 23.9081 81.4526 24.012 81.4233C24.1159 81.394 24.1901 81.3646 24.2494 81.35L24.6649 82.4061C24.6352 82.4207 24.561 82.4501 24.4572 82.4941C24.3533 82.5381 24.2049 82.5967 24.0268 82.6407C23.8488 82.6848 23.6411 82.7434 23.3888 82.7874C23.1365 82.8314 22.8546 82.8608 22.5579 82.8608C21.9792 82.8608 21.4895 82.7728 21.074 82.5967C20.6734 82.4207 20.3321 82.186 20.065 81.8633C19.7979 81.5553 19.605 81.1739 19.4863 80.7339C19.3676 80.2939 19.2934 79.7951 19.2934 79.2524C19.2934 78.607 19.3825 78.035 19.5605 77.5216C19.7386 77.0229 19.976 76.5975 20.2876 76.2601C20.5992 75.9228 20.9553 75.6587 21.3708 75.4827C21.7863 75.3067 22.2314 75.2187 22.7062 75.2187C23.1662 75.2187 23.5669 75.3067 23.8933 75.4827C24.2197 75.6587 24.4868 75.9081 24.7242 76.2161L23.8043 77.1255Z" fill="white"/>
<path d="M31.9212 76.2166C32.4405 76.8913 32.6928 77.8007 32.6928 78.9742C32.6928 79.5316 32.6186 80.0449 32.485 80.5143C32.3515 80.9984 32.1289 81.4091 31.847 81.7464C31.5651 82.0985 31.2089 82.3772 30.7786 82.5679C30.3483 82.7732 29.8587 82.8759 29.28 82.8759C28.7161 82.8759 28.2264 82.7879 27.811 82.6119C27.3955 82.4358 27.0542 82.1865 26.7871 81.8638C26.52 81.5411 26.3271 81.145 26.1936 80.6903C26.0749 80.2356 26.0007 79.7076 26.0007 79.1209C26.0007 78.5635 26.0749 78.0354 26.2084 77.566C26.342 77.0966 26.5645 76.6713 26.8465 76.3339C27.1284 75.9819 27.4845 75.7032 27.9148 75.5125C28.3451 75.3071 28.8348 75.2045 29.4135 75.2045C30.5857 75.2191 31.4167 75.5565 31.9212 76.2166ZM28.5826 76.6419C28.4045 76.774 28.2561 76.95 28.1522 77.1847C28.0484 77.4193 27.9742 77.6834 27.9297 77.9914C27.8852 78.2994 27.8703 78.6368 27.8703 78.9888C27.8703 79.3555 27.9 79.6929 27.9445 80.0156C27.989 80.3383 28.0781 80.617 28.1968 80.8663C28.3155 81.101 28.4787 81.2917 28.6864 81.4384C28.8942 81.5704 29.1464 81.6438 29.4729 81.6438C29.7548 81.6438 29.9922 81.5851 30.1851 81.4531C30.3632 81.3211 30.5115 81.145 30.6154 80.9104C30.7193 80.6757 30.7935 80.4116 30.838 80.1036C30.8825 79.7956 30.8973 79.4729 30.8973 79.1209C30.8973 78.7541 30.8677 78.4168 30.8231 78.0941C30.7786 77.7714 30.6896 77.478 30.5709 77.2433C30.4522 76.994 30.289 76.8033 30.0812 76.6713C29.8735 76.5393 29.6212 76.4659 29.2948 76.4659C28.998 76.4513 28.7606 76.5246 28.5826 76.6419Z" fill="white"/>
<path d="M40.3194 82.8608C40.3046 82.8461 40.26 82.8021 40.1859 82.7141C40.1117 82.6261 40.0375 82.5087 39.9484 82.362C39.8594 82.2154 39.7852 82.0247 39.6962 81.8046C39.622 81.5846 39.5626 81.3206 39.5478 81.0272C39.3846 81.614 39.1027 82.0687 38.7317 82.362C38.3607 82.6554 37.8562 82.8168 37.2182 82.8168C36.7434 82.8168 36.3427 82.7287 36.0014 82.5527C35.6602 82.3767 35.3782 82.142 35.1408 81.8193C34.9182 81.4966 34.7402 81.1153 34.6363 80.6605C34.5325 80.2058 34.4731 79.7071 34.4731 79.1497C34.4731 78.5923 34.5621 78.0643 34.7402 77.5949C34.9182 77.1255 35.1557 76.7148 35.4673 76.3628C35.7789 76.0254 36.1498 75.7467 36.595 75.556C37.0253 75.3654 37.515 75.2627 38.0491 75.2627C38.2272 75.2627 38.4201 75.2773 38.6278 75.292C38.8356 75.3067 39.0285 75.336 39.2362 75.3654V72.0357L40.9426 72.3291V79.1644C40.9426 79.7511 40.9723 80.2498 41.0465 80.6312C41.1207 81.0126 41.1949 81.3353 41.2839 81.57C41.3729 81.8047 41.4619 81.9807 41.5361 82.098C41.6103 82.2007 41.6548 82.274 41.6697 82.3034L40.3194 82.8608ZM38.2124 81.3793C38.4201 81.2179 38.5982 80.9979 38.7614 80.7192C38.9098 80.4552 39.0285 80.1472 39.1175 79.7951C39.2065 79.4578 39.251 79.091 39.251 78.739V76.6121C39.1472 76.5828 38.9988 76.5535 38.8059 76.5095C38.613 76.4655 38.4349 76.4508 38.2717 76.4508C37.9008 76.4508 37.5891 76.5095 37.3369 76.6415C37.0995 76.7735 36.8917 76.9495 36.7434 77.1695C36.595 77.3896 36.4911 77.6683 36.4318 77.9763C36.3724 78.2843 36.3427 78.6363 36.3427 79.003C36.3427 79.3404 36.3576 79.6778 36.3724 79.9858C36.3872 80.2938 36.4466 80.5725 36.5356 80.8219C36.6247 81.0566 36.7434 81.2473 36.9066 81.3939C37.0698 81.5406 37.2775 81.614 37.5446 81.614C37.7672 81.6286 38.0046 81.5406 38.2124 81.3793Z" fill="white"/>
<path d="M45.2316 72.4019C45.3948 72.5926 45.4838 72.8273 45.4838 73.1207C45.4838 73.414 45.3948 73.6634 45.2167 73.8541C45.0387 74.0448 44.7864 74.1474 44.4452 74.1474C44.1335 74.1474 43.8813 74.0448 43.7032 73.8541C43.5252 73.6634 43.4361 73.4287 43.4361 73.15C43.4361 72.842 43.5252 72.5926 43.7032 72.4019C43.8813 72.2113 44.1335 72.1086 44.4897 72.1086C44.8161 72.1232 45.0684 72.2113 45.2316 72.4019ZM44.0445 82.3322C43.7626 82.0242 43.629 81.6282 43.629 81.1295V75.3942H45.3354V80.9828C45.3354 81.2028 45.3651 81.3641 45.4393 81.4375C45.5135 81.5108 45.6174 81.5548 45.7509 81.5548C45.7954 81.5548 45.8399 81.5548 45.8845 81.5548C45.929 81.5548 45.9735 81.5548 46.018 81.5402C46.0625 81.5402 46.107 81.5402 46.1516 81.5255L46.3296 82.5816C46.2554 82.6256 46.1664 82.6549 46.0625 82.6843C45.9735 82.7136 45.8548 82.7429 45.7212 82.7576C45.5877 82.7723 45.4393 82.7869 45.2613 82.7869C44.7122 82.8016 44.3116 82.6403 44.0445 82.3322Z" fill="white"/>
<path d="M52.8721 82.7291V77.962C52.8721 77.5513 52.7979 77.2139 52.6495 76.9645C52.5011 76.7152 52.2489 76.5832 51.8927 76.5832C51.6702 76.5832 51.4476 76.6418 51.225 76.7592C51.0173 76.8765 50.8244 77.0379 50.6463 77.2579C50.4831 77.4779 50.3347 77.742 50.2308 78.05C50.127 78.358 50.0676 78.71 50.0676 79.0914V82.7291H48.3612V79.0181C48.3612 78.4313 48.3167 77.9326 48.2425 77.5366C48.1683 77.1406 48.0793 76.8179 47.9902 76.5685C47.8864 76.2898 47.7677 76.0551 47.6341 75.8791L48.9696 75.3511C49.0734 75.4537 49.1625 75.5857 49.2663 75.7471C49.3405 75.8791 49.4296 76.0551 49.5038 76.2605C49.5779 76.4658 49.6521 76.6858 49.6967 76.9499C49.9489 76.3632 50.3347 75.9378 50.8095 75.6738C51.2992 75.4097 51.8037 75.2777 52.3527 75.2777C53.1243 75.2777 53.6733 75.5124 54.0146 75.9671C54.3559 76.4218 54.534 77.0379 54.534 77.8153V82.7438H52.8721V82.7291Z" fill="white"/>
<path d="M58.2898 84.0346C58.4382 84.0932 58.6014 84.1519 58.7647 84.2252C58.9279 84.2839 59.1059 84.3573 59.2988 84.4159C59.4917 84.4746 59.6846 84.5186 59.8775 84.5626C60.0704 84.6066 60.2633 84.6213 60.4562 84.6213C61.0201 84.6213 61.4207 84.4599 61.6581 84.1226C61.9104 83.7999 62.0291 83.3745 62.0291 82.8464C62.0291 82.3331 61.9252 81.8197 61.7026 81.2916C61.5394 81.7903 61.2723 82.1717 60.9014 82.4357C60.5453 82.6998 60.0556 82.8318 59.4621 82.8318C58.9872 82.8318 58.5866 82.7438 58.2453 82.5678C57.904 82.3917 57.6221 82.157 57.3847 81.8343C57.1621 81.5116 56.9841 81.1303 56.8802 80.6756C56.7763 80.2209 56.717 79.7221 56.717 79.1648C56.717 78.6074 56.806 78.0793 56.9841 77.6099C57.1621 77.1406 57.3995 76.7299 57.7111 76.3778C58.0227 76.0405 58.3937 75.7618 58.8389 75.5711C59.2692 75.3804 59.7588 75.2777 60.293 75.2777C60.5304 75.2777 60.7827 75.2924 61.0646 75.3217C61.3317 75.351 61.6136 75.3951 61.8659 75.4391C62.133 75.4831 62.3852 75.5271 62.6078 75.5857C62.8452 75.6297 63.0381 75.6737 63.2162 75.7178L63.142 79.7661C63.1271 80.0595 63.142 80.3382 63.2013 80.5729C63.2458 80.8222 63.3052 81.0569 63.3645 81.3063C63.4239 81.541 63.4832 81.7903 63.5278 82.0397C63.5723 82.2891 63.602 82.5531 63.602 82.8464C63.602 83.8879 63.3349 84.6653 62.8007 85.1787C62.2665 85.6921 61.5394 85.9414 60.6195 85.9414C60.3227 85.9414 60.0259 85.9121 59.7292 85.8534C59.4324 85.7947 59.1505 85.7361 58.8982 85.6627C58.646 85.5894 58.4234 85.5307 58.2453 85.4574C58.0673 85.384 57.9486 85.34 57.8892 85.3107L58.2898 84.0346ZM60.4266 81.409C60.6343 81.2476 60.8123 81.0423 60.9756 80.7782C61.1388 80.5142 61.2575 80.2209 61.3465 79.8835C61.4356 79.5461 61.4801 79.2088 61.4801 78.8567V76.6125C61.3762 76.5832 61.2278 76.5538 61.0349 76.5098C60.842 76.4658 60.664 76.4512 60.5007 76.4512C60.1298 76.4512 59.8182 76.5098 59.5659 76.6418C59.3285 76.7739 59.1208 76.9499 58.9724 77.1699C58.824 77.3899 58.7201 77.6686 58.6608 77.9766C58.6014 78.2847 58.5718 78.6367 58.5718 79.0034C58.5718 79.3408 58.5866 79.6781 58.6014 79.9862C58.6163 80.2942 58.6756 80.5876 58.7647 80.8222C58.8537 81.0716 58.9724 81.2623 59.1356 81.409C59.2988 81.5557 59.5066 81.629 59.7737 81.629C59.9962 81.6437 60.2188 81.5703 60.4266 81.409Z" fill="white"/>
<path d="M70.3967 72.344L72.1031 72.0507V76.5538C72.2812 76.1577 72.5334 75.835 72.8599 75.615C73.1863 75.395 73.6018 75.2776 74.1063 75.2776C74.5663 75.2776 74.9818 75.3656 75.323 75.5417C75.6643 75.7177 75.9462 75.9524 76.1837 76.2751C76.4062 76.5978 76.5843 76.9791 76.6882 77.4339C76.792 77.8886 76.8514 78.3873 76.8514 78.9447C76.8514 79.502 76.7624 80.0301 76.5843 80.4995C76.4062 80.9835 76.1688 81.3796 75.8572 81.7316C75.5456 82.069 75.1747 82.3477 74.7295 82.5383C74.2844 82.729 73.8095 82.8317 73.2754 82.8317C72.9786 82.8317 72.6521 82.8024 72.3257 82.7584C71.9844 82.7144 71.6728 82.6704 71.3909 82.6117C71.0644 82.553 70.738 82.4797 70.4116 82.3917V72.344H70.3967ZM73.127 76.7004C72.9192 76.8618 72.7412 77.0818 72.5779 77.3605C72.4296 77.6392 72.3109 77.9472 72.2218 78.2846C72.1328 78.622 72.0883 78.9887 72.0883 79.3407V81.4822C72.1773 81.4969 72.3257 81.5262 72.5186 81.5703C72.7115 81.6143 72.9044 81.6289 73.0676 81.6289C73.4386 81.6289 73.7502 81.5702 73.9876 81.4382C74.2398 81.3062 74.4327 81.1302 74.5811 80.9102C74.7295 80.6902 74.8334 80.4115 74.8927 80.1034C74.9521 79.7954 74.9818 79.4434 74.9818 79.0767C74.9818 78.7393 74.9669 78.4019 74.9521 78.0939C74.9372 77.7859 74.8779 77.4925 74.7889 77.2578C74.6998 77.0085 74.5811 76.8178 74.4179 76.6711C74.2547 76.5244 74.0469 76.4511 73.7799 76.4511C73.5573 76.4511 73.3347 76.5391 73.127 76.7004Z" fill="white"/>
<path d="M84.524 76.2166C85.0434 76.8913 85.2956 77.8007 85.2956 78.9742C85.2956 79.5316 85.2214 80.0449 85.0879 80.5143C84.9544 80.9984 84.7318 81.4091 84.4499 81.7464C84.1679 82.0985 83.8118 82.3772 83.3815 82.5679C82.9512 82.7732 82.4615 82.8759 81.8828 82.8759C81.319 82.8759 80.8293 82.7879 80.4138 82.6119C79.9984 82.4358 79.6571 82.1865 79.39 81.8638C79.1229 81.5411 78.93 81.145 78.7965 80.6903C78.6778 80.2356 78.6036 79.7076 78.6036 79.1209C78.6036 78.5635 78.6777 78.0354 78.8113 77.566C78.9448 77.0966 79.1674 76.6713 79.4493 76.3339C79.7313 75.9819 80.0874 75.7032 80.5177 75.5125C80.948 75.3071 81.4377 75.2045 82.0164 75.2045C83.1738 75.2191 84.0047 75.5565 84.524 76.2166ZM81.1706 76.6419C80.9925 76.774 80.8441 76.95 80.7403 77.1847C80.6364 77.4193 80.5622 77.6834 80.5177 77.9914C80.4732 78.2994 80.4584 78.6368 80.4584 78.9888C80.4584 79.3555 80.488 79.6929 80.5325 80.0156C80.5771 80.3383 80.6661 80.617 80.7848 80.8663C80.9035 81.101 81.0667 81.2917 81.2745 81.4384C81.4822 81.5704 81.7344 81.6438 82.0609 81.6438C82.3428 81.6438 82.5802 81.5851 82.7731 81.4531C82.9512 81.3211 83.0996 81.145 83.2034 80.9104C83.3073 80.6757 83.3815 80.4116 83.426 80.1036C83.4705 79.7956 83.4854 79.4729 83.4854 79.1209C83.4854 78.7541 83.4557 78.4168 83.4112 78.0941C83.3667 77.7714 83.2776 77.478 83.1589 77.2433C83.0402 76.994 82.877 76.8033 82.6693 76.6713C82.4615 76.5393 82.2093 76.4659 81.8828 76.4659C81.5861 76.4513 81.3486 76.5246 81.1706 76.6419Z" fill="white"/>
<path d="M92.9655 76.2166C93.4849 76.8913 93.7371 77.8007 93.7371 78.9742C93.7371 79.5316 93.6629 80.0449 93.5294 80.5143C93.3959 80.9984 93.1733 81.4091 92.8914 81.7464C92.6094 82.0985 92.2533 82.3772 91.823 82.5679C91.3927 82.7732 90.903 82.8759 90.3243 82.8759C89.7605 82.8759 89.2708 82.7879 88.8553 82.6119C88.4399 82.4358 88.0986 82.1865 87.8315 81.8638C87.5644 81.5411 87.3715 81.145 87.2379 80.6903C87.1192 80.2356 87.0451 79.7076 87.0451 79.1209C87.0451 78.5635 87.1192 78.0354 87.2528 77.566C87.3863 77.0966 87.6089 76.6713 87.8908 76.3339C88.1728 75.9819 88.5289 75.7032 88.9592 75.5125C89.3895 75.3071 89.8792 75.2045 90.4579 75.2045C91.6301 75.2191 92.461 75.5565 92.9655 76.2166ZM89.6269 76.6419C89.4489 76.774 89.3005 76.95 89.1966 77.1847C89.0927 77.4193 89.0185 77.6834 88.974 77.9914C88.9295 78.2994 88.9147 78.6368 88.9147 78.9888C88.9147 79.3555 88.9444 79.6929 88.9889 80.0156C89.0334 80.3383 89.1224 80.617 89.2411 80.8663C89.3598 81.101 89.5231 81.2917 89.7308 81.4384C89.9385 81.5704 90.1908 81.6438 90.5172 81.6438C90.7991 81.6438 91.0366 81.5851 91.2295 81.4531C91.4075 81.3211 91.5559 81.145 91.6598 80.9104C91.7636 80.6757 91.8378 80.4116 91.8823 80.1036C91.9269 79.7956 91.9417 79.4729 91.9417 79.1209C91.9417 78.7541 91.912 78.4168 91.8675 78.0941C91.823 77.7714 91.734 77.478 91.6153 77.2433C91.4965 76.994 91.3333 76.8033 91.1256 76.6713C90.9179 76.5393 90.6656 76.4659 90.3392 76.4659C90.0424 76.4513 89.805 76.5246 89.6269 76.6419Z" fill="white"/>
<path d="M95.162 75.3946H96.4975L96.7942 73.6638L98.189 73.3558V75.3946H100.029L99.8212 76.5828H98.189V80.9538C98.189 81.2032 98.2632 81.3792 98.3968 81.4526C98.5303 81.5259 98.6935 81.5699 98.8568 81.5699C98.9903 81.5699 99.1387 81.5552 99.2722 81.5406C99.4058 81.5259 99.5393 81.4966 99.6432 81.4672C99.7767 81.4379 99.8954 81.4086 100.014 81.3645L100.296 82.4647L100.163 82.5087C100.073 82.5527 99.94 82.5967 99.7619 82.6407C99.5838 82.6847 99.3909 82.7287 99.1535 82.758C98.9161 82.7874 98.6639 82.8167 98.3819 82.8167C98.1 82.8167 97.8477 82.7873 97.6103 82.7287C97.3729 82.67 97.18 82.5673 97.002 82.4353C96.8387 82.3033 96.7052 82.1273 96.6013 81.9219C96.5123 81.7166 96.4529 81.4672 96.4529 81.1592V76.5974H95.1175V75.3946H95.162Z" fill="white"/>
<path d="M105.92 77.1255C105.772 76.9642 105.624 76.8175 105.46 76.7002C105.312 76.5828 105.104 76.5242 104.837 76.5242C104.689 76.5242 104.526 76.5535 104.333 76.5975C104.155 76.6415 103.977 76.7442 103.813 76.9202C103.65 77.0962 103.517 77.3456 103.413 77.6829C103.309 78.0203 103.249 78.475 103.249 79.0324C103.249 79.6191 103.309 80.0738 103.413 80.4112C103.517 80.7486 103.65 81.0126 103.813 81.2033C103.977 81.394 104.155 81.5113 104.348 81.57C104.54 81.6287 104.718 81.658 104.897 81.658C105.03 81.658 105.178 81.6433 105.327 81.614C105.475 81.5846 105.624 81.5553 105.757 81.526C105.891 81.4966 106.024 81.4526 106.128 81.4233C106.232 81.394 106.306 81.3646 106.366 81.35L106.781 82.4061C106.751 82.4207 106.677 82.4501 106.573 82.4941C106.469 82.5381 106.321 82.5967 106.143 82.6407C105.965 82.6848 105.757 82.7434 105.505 82.7874C105.253 82.8314 104.971 82.8608 104.674 82.8608C104.095 82.8608 103.606 82.7728 103.19 82.5967C102.789 82.4207 102.448 82.186 102.181 81.8633C101.914 81.5553 101.721 81.1739 101.602 80.7339C101.484 80.2939 101.41 79.7951 101.41 79.2524C101.41 78.607 101.499 78.035 101.677 77.5216C101.855 77.0229 102.092 76.5975 102.404 76.2601C102.715 75.9228 103.071 75.6587 103.487 75.4827C103.902 75.3067 104.348 75.2187 104.822 75.2187C105.282 75.2187 105.683 75.3067 106.009 75.4827C106.336 75.6587 106.603 75.9081 106.84 76.2161L105.92 77.1255Z" fill="white"/>
<path d="M114.601 79.1788C114.601 79.7655 114.645 80.2643 114.719 80.6603C114.794 81.0563 114.883 81.379 114.972 81.6284C115.076 81.9218 115.194 82.1564 115.328 82.3178L114.007 82.8458C113.874 82.7138 113.755 82.5672 113.651 82.3911C113.562 82.2298 113.473 82.0391 113.399 81.8191C113.325 81.5991 113.265 81.335 113.25 81.027C113.087 81.6137 112.805 82.0684 112.434 82.3618C112.063 82.6552 111.559 82.8165 110.921 82.8165C110.446 82.8165 110.045 82.7285 109.704 82.5525C109.363 82.3765 109.081 82.1418 108.844 81.8191C108.621 81.4964 108.443 81.115 108.339 80.6603C108.235 80.2056 108.176 79.7069 108.176 79.1495C108.176 78.5921 108.265 78.0641 108.443 77.5947C108.621 77.1253 108.858 76.7146 109.17 76.3626C109.482 76.0252 109.853 75.7465 110.298 75.5558C110.728 75.3651 111.218 75.2625 111.752 75.2625C112.049 75.2625 112.36 75.2918 112.687 75.3358C113.013 75.3798 113.31 75.4238 113.592 75.4825C113.874 75.5265 114.111 75.5851 114.304 75.6292C114.497 75.6732 114.616 75.7025 114.645 75.7172V79.1788H114.601ZM111.871 81.3937C112.078 81.2324 112.256 81.0123 112.42 80.7336C112.568 80.4696 112.687 80.1469 112.776 79.8096C112.865 79.4575 112.909 79.1055 112.909 78.7388V76.6119C112.805 76.5826 112.657 76.5532 112.464 76.5092C112.271 76.4652 112.093 76.4506 111.93 76.4506C111.559 76.4506 111.247 76.5092 110.995 76.6412C110.758 76.7733 110.55 76.9493 110.402 77.1693C110.253 77.3893 110.149 77.668 110.09 77.976C110.031 78.2841 110.001 78.6361 110.001 79.0028C110.001 79.3402 110.016 79.6775 110.031 79.9856C110.045 80.2936 110.105 80.587 110.194 80.8217C110.283 81.071 110.402 81.2617 110.565 81.4084C110.728 81.5551 110.936 81.6284 111.203 81.6284C111.425 81.6431 111.663 81.5551 111.871 81.3937Z" fill="white"/>
<path d="M125.567 82.7285V77.9174C125.567 77.5067 125.507 77.184 125.374 76.9346C125.24 76.6999 125.017 76.5679 124.706 76.5679C124.513 76.5679 124.32 76.6266 124.127 76.7293C123.934 76.8319 123.756 76.9786 123.593 77.184C123.43 77.3747 123.311 77.6093 123.207 77.888C123.103 78.1667 123.059 78.4748 123.059 78.7975V82.7138H121.367V77.9027C121.367 77.492 121.308 77.1693 121.174 76.9199C121.041 76.6853 120.818 76.5532 120.507 76.5532C120.314 76.5532 120.106 76.6119 119.913 76.7293C119.72 76.8466 119.542 77.0079 119.394 77.228C119.245 77.448 119.112 77.712 119.023 78.02C118.934 78.3281 118.874 78.6801 118.874 79.0615V82.7138H117.168V79.0175C117.168 78.4308 117.123 77.932 117.049 77.536C116.975 77.14 116.886 76.8173 116.797 76.5679C116.693 76.2892 116.574 76.0545 116.441 75.8785L117.776 75.3505C117.88 75.4531 117.969 75.5851 118.073 75.7465C118.147 75.8785 118.236 76.0545 118.311 76.2599C118.385 76.4652 118.459 76.6853 118.503 76.9493C118.756 76.3626 119.097 75.9372 119.557 75.6732C120.002 75.4091 120.492 75.2771 120.996 75.2771C121.501 75.2771 121.901 75.4091 122.183 75.6585C122.465 75.9078 122.673 76.2452 122.821 76.6412C123.089 76.1572 123.43 75.8052 123.86 75.5851C124.276 75.3798 124.721 75.2625 125.196 75.2625C125.581 75.2625 125.908 75.3211 126.175 75.4531C126.442 75.5705 126.65 75.7465 126.798 75.9665C126.946 76.1865 127.065 76.4506 127.139 76.7586C127.214 77.0666 127.243 77.4187 127.243 77.8V82.7285H125.567Z" fill="white"/>
<path d="M129.988 86V79.018C129.988 78.4313 129.944 77.9326 129.869 77.5365C129.795 77.1405 129.706 76.8178 129.617 76.5684C129.513 76.2897 129.395 76.055 129.261 75.879L130.596 75.351C130.715 75.4683 130.819 75.615 130.923 75.791C130.997 75.9377 131.086 76.1137 131.16 76.3337C131.235 76.5391 131.294 76.7884 131.338 77.0818C131.502 76.4951 131.769 76.0404 132.14 75.747C132.511 75.439 133.015 75.2923 133.683 75.2923C134.143 75.2923 134.558 75.3803 134.9 75.5563C135.241 75.7323 135.523 75.967 135.745 76.2897C135.968 76.6124 136.131 76.9938 136.25 77.4485C136.354 77.9032 136.413 78.4019 136.413 78.9593C136.413 79.5167 136.324 80.0448 136.161 80.5141C135.998 80.9982 135.745 81.3942 135.434 81.7463C135.122 82.0836 134.751 82.3623 134.306 82.553C133.861 82.7437 133.386 82.8464 132.837 82.8464C132.644 82.8464 132.451 82.8317 132.258 82.817C132.065 82.8024 131.873 82.773 131.665 82.7584V85.7213L129.988 86ZM132.718 76.7004C132.511 76.8618 132.333 77.0818 132.169 77.3605C132.021 77.6392 131.902 77.9472 131.813 78.2846C131.724 78.622 131.68 78.9887 131.68 79.3407V81.4676C131.784 81.4969 131.932 81.5262 132.125 81.5702C132.318 81.6143 132.496 81.6289 132.644 81.6289C133.015 81.6289 133.342 81.5702 133.579 81.4382C133.831 81.3062 134.024 81.1302 134.173 80.9102C134.321 80.6902 134.425 80.4115 134.484 80.1034C134.543 79.7954 134.573 79.4434 134.573 79.0767C134.573 78.7393 134.558 78.4019 134.543 78.0939C134.529 77.7859 134.469 77.4925 134.38 77.2578C134.291 77.0085 134.173 76.8178 134.009 76.6711C133.846 76.5244 133.638 76.4511 133.371 76.4511C133.163 76.4511 132.926 76.5391 132.718 76.7004Z" fill="white"/>
<path d="M0.461065 61.6982C0.311361 61.5438 0.193551 61.3609 0.114466 61.1602C0.0353808 60.9595 -0.00340902 60.745 0.000344748 60.529V39.0832C-0.00417639 38.8658 0.0358135 38.6497 0.117816 38.4486C0.199819 38.2474 0.322074 38.0654 0.476951 37.914C0.621829 37.7597 0.796862 37.6373 0.991002 37.5546C1.18514 37.4719 1.39418 37.4307 1.60492 37.4335C1.82016 37.4323 2.03351 37.4741 2.23261 37.5565C2.43172 37.639 2.61261 37.7604 2.76481 37.9139C2.91701 38.0673 3.0375 38.2497 3.11928 38.4504C3.20107 38.6511 3.24253 38.8662 3.24127 39.0832V58.8794H14.6163C15.0502 58.8794 15.4665 59.0532 15.7733 59.3625C16.0802 59.6719 16.2526 60.0915 16.2526 60.529C16.2526 60.9666 16.0802 61.3862 15.7733 61.6955C15.4665 62.0049 15.0502 62.1787 14.6163 62.1787H1.60492C1.3914 62.1847 1.17905 62.145 0.98188 62.0621C0.78471 61.9793 0.607202 61.8553 0.461065 61.6982Z" fill="white"/>
<path d="M29.8221 45.7349C31.0883 46.4957 32.136 47.5921 32.8575 48.9115C33.6068 50.28 33.9916 51.8303 33.9725 53.4036V60.4787C33.9725 60.9085 33.8077 61.3206 33.5144 61.6245C33.221 61.9284 32.8232 62.0991 32.4084 62.0991C31.9935 62.0991 31.5957 61.9284 31.3024 61.6245C31.009 61.3206 30.8442 60.9085 30.8442 60.4787V59.3076C30.1454 60.211 29.2552 60.9357 28.2425 61.4253C27.0855 61.9808 25.8153 62.236 24.5418 62.1689C23.2682 62.1018 22.0296 61.7144 20.9329 61.0403C19.7306 60.2755 18.7553 59.1818 18.1144 57.8797C17.4231 56.4919 17.072 54.9491 17.0923 53.3876C17.0754 51.8166 17.4544 50.2683 18.1918 48.8954C18.9058 47.5648 19.9619 46.4653 21.2426 45.7188C22.5539 44.9587 24.0318 44.5609 25.5344 44.5637C27.037 44.5665 28.5136 44.9698 29.8221 45.7349ZM28.3199 58.5535C29.1407 58.0401 29.8143 57.3091 30.2712 56.4358C30.7443 55.5012 30.9839 54.4588 30.9681 53.4036C30.982 52.3436 30.7426 51.2964 30.2712 50.3554C29.8282 49.4676 29.1517 48.7278 28.3199 48.2216C27.4772 47.7172 26.5211 47.4516 25.5479 47.4516C24.5746 47.4516 23.6185 47.7172 22.7758 48.2216C21.9498 48.7404 21.2712 49.4766 20.809 50.3554C20.3256 51.2923 20.0805 52.3414 20.0966 53.4036C20.0785 54.461 20.3238 55.5053 20.809 56.4358C21.2704 57.3184 21.9556 58.0537 22.7907 58.5626C23.6258 59.0715 24.5791 59.3346 25.5479 59.3236C26.5238 59.3452 27.4854 59.0781 28.3199 58.5535Z" fill="white"/>
<path d="M48.3633 61.1686C46.6093 60.0626 45.1705 58.4708 44.2002 56.5629C43.1809 54.5928 42.6562 52.3764 42.6768 50.1277C42.6562 47.8943 43.1812 45.6934 44.2002 43.7407C45.179 41.8394 46.6159 40.2497 48.3633 39.1349C50.124 38.0051 52.1445 37.4163 54.2006 37.4339C55.709 37.4339 57.0213 37.6425 58.1224 38.0758C59.2235 38.5091 60.3397 39.1991 61.4709 40.162C61.6765 40.3133 61.8425 40.5176 61.9536 40.7558C62.0354 40.9809 62.0763 41.2205 62.0743 41.4619C62.0773 41.6592 62.0397 41.8548 61.9641 42.0349C61.8886 42.2151 61.7769 42.3756 61.6369 42.505C61.3668 42.7735 61.0109 42.9227 60.6413 42.9222C60.2591 42.9176 59.8906 42.7699 59.6006 42.505C58.8901 41.8405 58.0859 41.2989 57.2174 40.9002C56.4481 40.5792 55.4375 40.4027 54.2006 40.4027C52.6854 40.3926 51.1991 40.8436 49.9169 41.7026C48.6145 42.5775 47.5447 43.793 46.8097 45.2331C46.0571 46.7317 45.6633 48.4046 45.6633 50.1036C45.6633 51.8027 46.0571 53.4756 46.8097 54.9742C47.5407 56.4131 48.6117 57.6244 49.9169 58.4887C51.1982 59.3497 52.6852 59.8009 54.2006 59.7885C56.1163 59.7885 57.9414 59.0985 59.6911 57.7023C59.9711 57.4663 60.3145 57.3314 60.6715 57.3172C60.8477 57.3124 61.0227 57.3486 61.1842 57.4235C61.3458 57.4984 61.49 57.61 61.6067 57.7504C61.8615 58.0606 61.9963 58.4621 61.9838 58.8738C61.9831 59.0938 61.9399 59.3114 61.8569 59.5129C61.7739 59.7145 61.6528 59.8957 61.5011 60.0453C59.4495 61.8521 56.8639 62.8297 54.2006 62.8055C52.1489 62.855 50.1256 62.2876 48.3633 61.1686Z" fill="white"/>
<path d="M76.0634 45.7349C77.3296 46.4957 78.3773 47.5921 79.0987 48.9115C79.8481 50.28 80.2329 51.8303 80.2138 53.4036V60.4787C80.2138 60.9085 80.049 61.3206 79.7556 61.6245C79.4623 61.9284 79.0645 62.0991 78.6496 62.0991C78.2348 62.0991 77.837 61.9284 77.5436 61.6245C77.2503 61.3206 77.0855 60.9085 77.0855 60.4787V59.3076C76.3867 60.211 75.4965 60.9357 74.4838 61.4253C73.3268 61.9808 72.0566 62.236 70.783 62.1689C69.5095 62.1018 68.2708 61.7144 67.1742 61.0403C65.9719 60.2755 64.9966 59.1818 64.3556 57.8797C63.6643 56.4919 63.3133 54.9491 63.3335 53.3876C63.3167 51.8166 63.6957 50.2683 64.4331 48.8954C65.1471 47.5648 66.2031 46.4653 67.4839 45.7188C68.7951 44.9587 70.2731 44.5609 71.7757 44.5637C73.2783 44.5665 74.7548 44.9698 76.0634 45.7349ZM74.5612 58.5535C75.382 58.0401 76.0556 57.3091 76.5125 56.4358C76.9856 55.5012 77.2252 54.4588 77.2094 53.4036C77.2233 52.3436 76.9839 51.2964 76.5125 50.3554C76.0695 49.4676 75.393 48.7278 74.5612 48.2216C73.7185 47.7172 72.7624 47.4516 71.7891 47.4516C70.8159 47.4516 69.8598 47.7172 69.0171 48.2216C68.1911 48.7404 67.5125 49.4766 67.0503 50.3554C66.5669 51.2923 66.3217 52.3414 66.3379 53.4036C66.3197 54.461 66.5651 55.5053 67.0503 56.4358C67.5117 57.3184 68.1969 58.0537 69.0319 58.5626C69.867 59.0715 70.8204 59.3346 71.7891 59.3236C72.7648 59.3431 73.7259 59.0761 74.5612 58.5535Z" fill="white"/>
<path d="M95.0972 45.6902C96.4223 46.4327 97.5166 47.5191 98.2617 48.8317C99.0265 50.1893 99.4196 51.7206 99.4022 53.2742C99.4231 54.8185 99.0591 56.3442 98.342 57.7167C97.6727 59.0013 96.6621 60.0817 95.4185 60.8423C94.171 61.5936 92.7351 61.9839 91.2741 61.9688C90.0866 61.9743 88.9125 61.7196 87.8366 61.2231C86.7929 60.7281 85.8717 60.0133 85.138 59.1287V67.6012C85.1491 67.8146 85.1148 68.0279 85.0373 68.2274C84.9598 68.4269 84.8409 68.6081 84.6882 68.7594C84.533 68.9075 84.3491 69.0231 84.1477 69.0994C83.9462 69.1758 83.7312 69.2112 83.5156 69.2037C83.3004 69.2114 83.0859 69.1753 82.8855 69.0975C82.6851 69.0198 82.5031 68.902 82.3509 68.7516C82.1986 68.6012 82.0794 68.4215 82.0006 68.2235C81.9219 68.0256 81.8853 67.8137 81.8932 67.6012V53.29C81.8734 51.7341 82.2725 50.201 83.0497 48.8475C83.7935 47.5393 84.8813 46.4539 86.1981 45.7061C87.5588 44.9595 89.0891 44.5664 90.6456 44.5637C92.2021 44.5609 93.7338 44.9485 95.0972 45.6902ZM93.523 58.3672C94.3792 57.8603 95.0833 57.1375 95.563 56.2728C96.0663 55.3527 96.3208 54.3199 96.3019 53.2742C96.311 52.2245 96.0572 51.1889 95.563 50.2596C95.1978 49.6098 94.7048 49.0387 94.113 48.5796C93.5213 48.1205 92.8427 47.7828 92.117 47.5862C91.3913 47.3897 90.6332 47.3383 89.8871 47.435C89.1411 47.5317 88.4221 47.7746 87.7724 48.1494C86.9203 48.6632 86.2218 49.3915 85.7484 50.2596C85.2595 51.1902 85.0111 52.2258 85.0255 53.2742C85.0091 54.3177 85.2577 55.3486 85.7484 56.2728C86.2128 57.1432 86.9137 57.8685 87.7724 58.3672C88.6409 58.8791 89.6363 59.1428 90.6477 59.1287C91.6597 59.148 92.6565 58.884 93.523 58.3672Z" fill="white"/>
<path d="M103.388 61.5056C102.176 61.0564 101.226 60.4789 100.536 59.757C100.41 59.6303 100.31 59.4783 100.241 59.3102C100.173 59.142 100.137 58.9612 100.137 58.7784C100.133 58.5353 100.186 58.2948 100.293 58.079C100.401 57.8632 100.558 57.6789 100.751 57.5432C101.134 57.2544 101.487 57.094 101.809 57.094C102.207 57.094 102.59 57.2865 102.958 57.6715C103.342 58.1207 103.924 58.5057 104.691 58.8265C105.471 59.1559 106.303 59.3248 107.144 59.3239C108.294 59.3239 109.183 59.1153 109.827 58.7142C110.471 58.3132 110.778 57.7678 110.778 57.094C110.778 56.4202 110.471 55.8908 109.843 55.4577C109.214 55.0245 108.156 54.6556 106.654 54.3668C102.769 53.5807 100.827 51.9123 100.827 49.3616C100.801 48.4023 101.112 47.4662 101.701 46.7307C102.319 45.9891 103.112 45.4304 104.001 45.1104C104.976 44.7478 106.002 44.5633 107.037 44.565C108.243 44.5441 109.442 44.7731 110.563 45.2387C111.606 45.6879 112.434 46.2975 113.032 47.0836C113.273 47.362 113.413 47.7192 113.43 48.0943C113.43 48.4472 113.262 48.7841 112.909 49.0728C112.662 49.2522 112.366 49.3423 112.066 49.3295C111.534 49.3224 111.024 49.1046 110.64 48.7199C110.179 48.2619 109.63 47.9119 109.03 47.6932C108.366 47.4728 107.672 47.3697 106.976 47.3884C106.04 47.3884 105.289 47.5488 104.691 47.8857C104.093 48.2226 103.802 48.6718 103.802 49.2654C103.793 49.6436 103.9 50.0147 104.108 50.3241C104.308 50.6129 104.691 50.8696 105.258 51.1102C106.054 51.4217 106.875 51.6579 107.711 51.8161C109.919 52.2813 111.468 52.923 112.388 53.7572C113.308 54.5914 113.768 55.6502 113.768 56.9656C113.781 57.9074 113.519 58.8309 113.016 59.6126C112.51 60.3987 111.775 61.0243 110.793 61.4896C109.812 61.9548 108.631 62.1794 107.267 62.1794C105.947 62.1801 104.636 61.9524 103.388 61.5056Z" fill="white"/>
<path d="M129.821 45.0302C129.957 45.1857 130.064 45.3698 130.134 45.5715C130.204 45.7733 130.237 45.9886 130.23 46.2045V60.3929C130.23 60.8238 130.074 61.237 129.798 61.5417C129.522 61.8464 129.148 62.0176 128.757 62.0176C128.367 62.0176 127.992 61.8464 127.716 61.5417C127.44 61.237 127.285 60.8238 127.285 60.3929V60.039C126.662 60.7249 125.917 61.2616 125.098 61.6155C124.234 61.9919 123.314 62.183 122.386 62.1785C121.142 62.1987 119.913 61.8723 118.814 61.2294C117.759 60.5886 116.898 59.6211 116.335 58.4464C115.737 57.2238 115.446 55.7599 115.446 54.0387V46.2206C115.446 45.7897 115.601 45.3764 115.877 45.0717C116.153 44.767 116.528 44.5959 116.918 44.5959C117.309 44.5959 117.684 44.767 117.96 45.0717C118.236 45.3764 118.391 45.7897 118.391 46.2206V54.0387C118.391 55.7599 118.814 57.063 119.645 57.9316C120.476 58.8003 121.584 59.2507 122.969 59.2507C123.732 59.2644 124.487 59.0769 125.17 58.7038C125.797 58.3744 126.335 57.8697 126.731 57.2399C127.109 56.6294 127.308 55.9046 127.299 55.1647V46.1884C127.292 45.971 127.325 45.7542 127.398 45.552C127.471 45.3498 127.581 45.1666 127.722 45.0141C128.008 44.7218 128.385 44.5607 128.775 44.5637C129.165 44.5667 129.539 44.7335 129.821 45.0302Z" fill="white"/>
<path d="M135.143 61.4405C134.365 60.9183 133.755 60.1966 133.38 59.3572C132.95 58.4022 132.734 57.3698 132.749 56.3285V39.0215C132.739 38.8109 132.775 38.6007 132.855 38.4047C132.936 38.2086 133.058 38.0311 133.214 37.8837C133.369 37.736 133.554 37.6201 133.757 37.543C133.96 37.4659 134.177 37.4292 134.395 37.435C134.613 37.4255 134.831 37.4605 135.035 37.5378C135.238 37.6152 135.422 37.733 135.575 37.8837C135.728 38.0333 135.849 38.2112 135.929 38.4067C136.009 38.6022 136.047 38.8114 136.041 39.0215V56.3125C136.041 57.0977 136.19 57.7387 136.506 58.2515C136.822 58.7643 137.205 59.0047 137.687 59.0047H138.501C138.702 58.9971 138.903 59.0335 139.087 59.1112C139.271 59.1889 139.435 59.3059 139.566 59.4534C139.847 59.7693 139.995 60.1752 139.981 60.5912C139.982 60.8165 139.925 61.0386 139.815 61.2373C139.705 61.4359 139.545 61.6049 139.349 61.7289C138.875 62.0406 138.31 62.1978 137.737 62.1776H137.67C136.768 62.1928 135.885 61.935 135.143 61.4405Z" fill="white"/>
<path d="M155.402 54.1087C155.124 54.3734 154.754 54.5174 154.373 54.5098H142.478C142.66 55.9194 143.375 57.2022 144.474 58.0872C145.567 59.0016 146.913 59.4508 148.497 59.4508C149.166 59.4466 149.83 59.3273 150.461 59.0978C151.062 58.9098 151.63 58.6225 152.139 58.2476C152.433 58.0155 152.796 57.8911 153.169 57.8947C153.509 57.8767 153.844 57.9915 154.103 58.2155C154.483 58.5364 154.673 58.8893 154.673 59.2903C154.672 59.4781 154.625 59.6625 154.536 59.8276C154.448 59.9926 154.321 60.1331 154.167 60.2368C153.373 60.8561 152.478 61.3286 151.522 61.6325C150.548 61.9761 149.527 62.1602 148.497 62.1779C146.891 62.2064 145.305 61.8199 143.888 61.055C142.559 60.3335 141.457 59.2499 140.704 57.9267C139.93 56.544 139.536 54.9762 139.564 53.3868C139.542 51.801 139.913 50.2348 140.641 48.8309C141.33 47.5157 142.374 46.4255 143.65 45.6866C144.933 44.9326 146.39 44.5637 148.022 44.5637C149.621 44.5637 151.015 44.9166 152.187 45.6385C153.355 46.3567 154.291 47.4049 154.879 48.6544C155.513 49.9378 155.814 51.4297 155.814 53.0981C155.823 53.2869 155.791 53.4753 155.719 53.65C155.648 53.8247 155.54 53.9814 155.402 54.1087ZM144.315 48.5742C143.365 49.4244 142.763 50.5474 142.51 51.9751H152.931C152.741 50.5634 152.219 49.4244 151.363 48.5742C150.508 47.724 149.384 47.3069 148.006 47.3069C146.501 47.3069 145.266 47.74 144.315 48.5742Z" fill="white"/>
<path d="M92.2112 1.33549C91.5769 0.712676 90.776 0.28399 89.9037 0.100395C89.0315 -0.0832007 88.1245 -0.0139847 87.2906 0.299817L65.249 8.44135C64.5049 8.71458 63.8426 9.17059 63.3238 9.76689C62.8049 10.3632 62.4464 11.0804 62.2817 11.8515C62.117 12.6227 62.1514 13.4228 62.3818 14.1771C62.6121 14.9315 63.0309 15.6156 63.5991 16.1657L67.333 19.7906L69.446 17.6473L65.7121 14.0225C65.5077 13.8272 65.3566 13.5835 65.2731 13.3143C65.1895 13.045 65.1763 12.7591 65.2345 12.4834C65.2883 12.2058 65.4141 11.947 65.5994 11.7326C65.7847 11.5181 66.0231 11.3555 66.291 11.2607L87.7392 3.33491L67.6948 23.7751C67.5298 23.9419 67.3996 24.1395 67.3117 24.3565C67.2238 24.5736 67.1799 24.8057 67.1826 25.0397C67.1853 25.2736 67.2345 25.5047 67.3274 25.7197C67.4203 25.9347 67.555 26.1293 67.7238 26.2923C67.8901 26.4583 68.089 26.5887 68.308 26.6753C68.5271 26.7619 68.7617 26.8029 68.9974 26.7958C69.2322 26.7941 69.4644 26.7463 69.6805 26.6549C69.8966 26.5636 70.0924 26.4305 70.2565 26.2635L90.3153 5.80902L82.891 27.328C82.7981 27.594 82.6391 27.8323 82.4288 28.021C82.2184 28.2096 81.9636 28.3423 81.6879 28.4069C81.4121 28.4715 81.1245 28.4657 80.8515 28.3903C80.5786 28.3148 80.3293 28.1721 80.1267 27.9753L76.3928 24.3792L74.2798 26.5225L77.9992 30.1329C78.4394 30.5601 78.9599 30.8968 79.5311 31.1238C80.1022 31.3509 80.7128 31.4639 81.3279 31.4563C81.6793 31.4558 82.0293 31.4123 82.3699 31.3268C83.1429 31.146 83.8568 30.7725 84.4442 30.2415C85.0317 29.7104 85.4733 29.0394 85.7276 28.2917L93.369 6.18301C93.6674 5.35014 93.7168 4.44926 93.5114 3.58909C93.3059 2.72892 92.8544 1.94623 92.2112 1.33549Z" fill="white"/>
</svg>
